<?xml version="1.0" encoding="UTF-8"?>
<!DOCTYPE svg PUBLIC "-//W3C//DTD SVG 1.1//EN" "http://www.w3.org/Graphics/SVG/1.1/DTD/svg11.dtd">
<svg version="1.2" xmlns="http://www.w3.org/2000/svg" xmlns:xlink="http://www.w3.org/1999/xlink" x="0" y="0" width="492" height="419" viewBox="0 0 492 419">
<style type="text/css"><![CDATA[
text { font:12px Dialog; }
]]></style>
<rect x="-485" y="-485" width="1462" height="1389" style="fill:rgb(255,255,255);stroke:none" />
<clipPath id="clip1"><path d="M15,15 L477,15 L477,404 L15,404 Z M26,126 C21.5817184,126 18,129.5817261 18,134 L18,178 C18,182.4182739 21.5817184,186 26,186 L253,186 C257.4182739,186 261,182.4182739 261,178 L261,134 C261,129.5817261 257.4182739,126 253,126 Z M26,126" /></clipPath>
<path d="M170.3606567,126 C191.3916168,64.6666641 222.9380798,34 265,34" style="fill:none;stroke:rgb(85,142,213)" clip-path="url(#clip1)" />
<clipPath id="clip2"><path d="M15,15 L477,15 L477,404 L15,404 Z M26,126 C21.5817184,126 18,129.5817261 18,134 L18,178 C18,182.4182739 21.5817184,186 26,186 L253,186 C257.4182739,186 261,182.4182739 261,178 L261,134 C261,129.5817261 257.4182739,126 253,126 Z M26,126" /></clipPath>
<path d="M239.4056702,126 C256.4266357,110.6666718 281.9580688,103 316,103" style="fill:none;stroke:rgb(85,142,213)" clip-path="url(#clip2)" />
<clipPath id="clip3"><path d="M15,15 L477,15 L477,404 L15,404 Z M26,126 C21.5817184,126 18,129.5817261 18,134 L18,178 C18,182.4182739 21.5817184,186 26,186 L253,186 C257.4182739,186 261,182.4182739 261,178 L261,134 C261,129.5817261 257.4182739,126 253,126 Z M26,126" /></clipPath>
<path d="M167.5970154,186 C189.2421265,255.3333435 221.7097778,290 265,290" style="fill:none;stroke:rgb(85,142,213)" clip-path="url(#clip3)" />
<clipPath id="clip4"><path d="M14,122 L266,122 L266,191 L14,191 L14,122 Z" /></clipPath>
<path d="M26,126 C21.5817184,126 18,129.5817261 18,134 L18,178 C18,182.4182739 21.5817184,186 26,186 L253,186 C257.4182739,186 261,182.4182739 261,178 L261,134 C261,129.5817261 257.4182739,126 253,126 Z M26,126" style="fill:rgb(220,230,242);stroke:none" clip-path="url(#clip4)" />
<clipPath id="clip5"><path d="M14,122 L266,122 L266,191 L14,191 L14,122 Z" /></clipPath>
<path d="M26,126 C21.5817184,126 18,129.5817261 18,134 L18,178 C18,182.4182739 21.5817184,186 26,186 L253,186 C257.4182739,186 261,182.4182739 261,178 L261,134 C261,129.5817261 257.4182739,126 253,126 Z M26,126" style="fill:none;stroke:rgb(85,142,213);stroke-width:5" clip-path="url(#clip5)" />
<clipPath id="clip6"><path d="M50,142 L230,142 L230,171 L50,171 L50,142 Z" /></clipPath>
<path d="M66.5058594,154.7333984 C66.5058594,156.8603668 65.9785233,158.4951172 64.9238281,159.6376953 C63.869133,160.7802734 62.3574295,161.3515625 60.3886719,161.3515625 C58.4199142,161.3515625 56.9082108,160.7802734 55.8535156,159.6376953 C54.7988205,158.4951172 54.2714844,156.8545074 54.2714844,154.7158203 C54.2714844,152.5771332 54.8002853,150.9438477 55.8579102,149.815918 C56.915535,148.6879883 58.431633,148.1240234 60.40625,148.1240234 C62.380867,148.1240234 63.8911057,148.6923828 64.9370117,149.8291016 C65.9829178,150.9658203 66.5058594,152.6005707 66.5058594,154.7333984 Z M57.1279297,154.7333984 C57.1279297,156.1689453 57.4003906,157.25 57.9453125,157.9765625 C58.4902344,158.703125 59.3046799,159.0664063 60.3886719,159.0664063 C62.5625076,159.0664063 63.6494141,157.6220856 63.6494141,154.7333984 C63.6494141,151.8388519 62.568367,150.3916016 60.40625,150.3916016 C59.322258,150.3916016 58.5048828,150.7563477 57.9541016,151.4858398 C57.4033203,152.215332 57.1279297,153.2978516 57.1279297,154.7333984 Z M74.3544922,161.3515625 C73.2001877,161.3515625 72.2949219,160.9326172 71.6386719,160.0947266 L71.4980469,160.0947266 C71.5917969,160.9150391 71.6386719,161.3896484 71.6386719,161.5185547 L71.6386719,165.5 L68.9580078,165.5 L68.9580078,151.3496094 L71.1376953,151.3496094 L71.515625,152.6240234 L71.6386719,152.6240234 C72.265625,151.6513672 73.1943283,151.1650391 74.4248047,151.1650391 C75.5849686,151.1650391 76.4931641,151.6132813 77.1494141,152.5097656 C77.8056641,153.40625 78.1337891,154.6513519 78.1337891,156.2451172 C78.1337891,157.2939453 77.9799805,158.2050781 77.6723633,158.9785156 C77.3647461,159.7519531 76.9267578,160.3408203 76.3583984,160.7451172 C75.7900391,161.1494141 75.1220779,161.3515625 74.3544922,161.3515625 Z M73.5634766,153.3095703 C72.9013672,153.3095703 72.4179688,153.5131836 72.1132813,153.9204102 C71.8085938,154.3276367 71.6503906,155 71.6386719,155.9375 L71.6386719,156.2275391 C71.6386719,157.2822266 71.7954102,158.0380859 72.1088867,158.4951172 C72.4223633,158.9521484 72.9189453,159.1806641 73.5986328,159.1806641 C74.7998123,159.1806641 75.4003906,158.1904449 75.4003906,156.2099609 C75.4003906,155.2431641 75.2524414,154.5180664 74.956543,154.034668 C74.6606445,153.5512695 74.1962891,153.3095703 73.5634766,153.3095703 Z M84.4179688,153.0722656 C83.8496094,153.0722656 83.4042969,153.2524414 83.0820313,153.612793 C82.7597656,153.9731445 82.5751953,154.484375 82.5283203,155.1464844 L86.2900391,155.1464844 C86.2783203,154.484375 86.1054688,153.9731445 85.7714844,153.612793 C85.4375,153.2524414 84.9863281,153.0722656 84.4179688,153.0722656 Z M84.7958984,161.3515625 C83.2138596,161.3515625 81.9775391,160.9150391 81.0869141,160.0419922 C80.1962891,159.1689453 79.7509766,157.9326324 79.7509766,156.3330078 C79.7509766,154.6865082 80.1625977,153.4135742 80.9858398,152.5141602 C81.809082,151.6147461 82.947258,151.1650391 84.4003906,151.1650391 C85.7890701,151.1650391 86.8701172,151.5605469 87.6435547,152.3515625 C88.4169922,153.1425781 88.8037109,154.2353516 88.8037109,155.6298828 L88.8037109,156.9306641 L82.4667969,156.9306641 C82.4960938,157.6923828 82.7216797,158.2871094 83.1435547,158.7148438 C83.5654297,159.1425781 84.1572266,159.3564453 84.9189453,159.3564453 C85.5107422,159.3564453 86.0703125,159.2949219 86.5976563,159.171875 C87.125,159.0488281 87.6757813,158.8525391 88.25,158.5830078 L88.25,160.6572266 C87.78125,160.8916016 87.2802734,161.065918 86.7470703,161.1801758 C86.2138672,161.2944336 85.5634766,161.3515625 84.7958984,161.3515625 Z M100.0537109,161.1757813 L97.3730469,161.1757813 L97.3730469,155.4365234 C97.3730469,154.7275391 97.2470703,154.1958008 96.9951172,153.8413086 C96.7431641,153.4868164 96.3417969,153.3095703 95.7910156,153.3095703 C95.0410156,153.3095703 94.4990234,153.5600586 94.1650391,154.0610352 C93.8310547,154.5620117 93.6640625,155.3925781 93.6640625,156.5527344 L93.6640625,161.1757813 L90.9833984,161.1757813 L90.9833984,151.3496094 L93.03125,151.3496094 L93.3916016,152.6064453 L93.5410156,152.6064453 C93.8398438,152.1318359 94.2514648,151.7729492 94.7758789,151.5297852 C95.300293,151.2866211 95.8964844,151.1650391 96.5644531,151.1650391 C97.7070313,151.1650391 98.5742188,151.4741211 99.1660156,152.0922852 C99.7578125,152.7104492 100.0537109,153.6025391 100.0537109,154.7685547 Z M107.9023438,153.9599609 L113,153.9599609 L113,160.6220703 C112.1738281,160.8916016 111.3959961,161.0805664 110.6665039,161.1889648 C109.9370117,161.2973633 109.1914063,161.3515625 108.4296875,161.3515625 C106.4902191,161.3515625 105.0092773,160.7817383 103.9868164,159.6420898 C102.9643555,158.5024414 102.453125,156.8662262 102.453125,154.7333984 C102.453125,152.6591644 103.0463791,151.0419922 104.2329102,149.8818359 C105.4194412,148.7216797 107.0644379,148.1416016 109.1679688,148.1416016 C110.4863358,148.1416016 111.7578049,148.4052734 112.9824219,148.9326172 L112.0771484,151.1123047 C111.1396484,150.6435547 110.1640701,150.4091797 109.1503906,150.4091797 C107.9726486,150.4091797 107.0292969,150.8046875 106.3203125,151.5957031 C105.6113281,152.3867188 105.2568359,153.4501953 105.2568359,154.7861328 C105.2568359,156.1806641 105.5424805,157.2456055 106.1137695,157.980957 C106.6850586,158.7163086 107.515625,159.0839844 108.6054688,159.0839844 C109.1738281,159.0839844 109.7509766,159.0253906 110.3369141,158.9082031 L110.3369141,156.2275391 L107.9023438,156.2275391 Z M116.0585938,161.1757813 L116.0585938,148.3261719 L118.7832031,148.3261719 L118.7832031,158.9257813 L123.9951172,158.9257813 L123.9951172,161.1757813 Z M138.3037109,161.1757813 L130.9033203,161.1757813 L130.9033203,148.3261719 L138.3037109,148.3261719 L138.3037109,150.5585938 L133.6279297,150.5585938 L133.6279297,153.3798828 L137.9785156,153.3798828 L137.9785156,155.6123047 L133.6279297,155.6123047 L133.6279297,158.9257813 L138.3037109,158.9257813 Z M142.7861328,156.1572266 L139.6220703,151.3496094 L142.6630859,151.3496094 L144.5703125,154.4785156 L146.4951172,151.3496094 L149.5361328,151.3496094 L146.3369141,156.1572266 L149.6855469,161.1757813 L146.6357422,161.1757813 L144.5703125,157.8095703 L142.4960938,161.1757813 L139.4550781,161.1757813 Z M155.3193359,159.2158203 C155.7880859,159.2158203 156.3505859,159.1132813 157.0068359,158.9082031 L157.0068359,160.9033203 C156.3388672,161.2021484 155.5185547,161.3515625 154.5458984,161.3515625 C153.4736328,161.3515625 152.6928711,161.0805664 152.2036133,160.5385742 C151.7143555,159.996582 151.4697266,159.1835938 151.4697266,158.0996094 L151.4697266,153.3623047 L150.1865234,153.3623047 L150.1865234,152.2285156 L151.6630859,151.3320313 L152.4365234,149.2578125 L154.1503906,149.2578125 L154.1503906,151.3496094 L156.9013672,151.3496094 L156.9013672,153.3623047 L154.1503906,153.3623047 L154.1503906,158.0996094 C154.1503906,158.4804688 154.2573242,158.7617188 154.4711914,158.9433594 C154.6850586,159.125 154.9677734,159.2158203 155.3193359,159.2158203 Z M163.0625,153.0722656 C162.4941406,153.0722656 162.0488281,153.2524414 161.7265625,153.612793 C161.4042969,153.9731445 161.2197266,154.484375 161.1728516,155.1464844 L164.9345703,155.1464844 C164.9228516,154.484375 164.75,153.9731445 164.4160156,153.612793 C164.0820313,153.2524414 163.6308594,153.0722656 163.0625,153.0722656 Z M163.4404297,161.3515625 C161.8583984,161.3515625 160.6220703,160.9150391 159.7314453,160.0419922 C158.8408203,159.1689453 158.3955078,157.9326324 158.3955078,156.3330078 C158.3955078,154.6865082 158.8071289,153.4135742 159.6303711,152.5141602 C160.4536133,151.6147461 161.5917969,151.1650391 163.0449219,151.1650391 C164.4335938,151.1650391 165.5146484,151.5605469 166.2880859,152.3515625 C167.0615234,153.1425781 167.4482422,154.2353516 167.4482422,155.6298828 L167.4482422,156.9306641 L161.1113281,156.9306641 C161.140625,157.6923828 161.3662109,158.2871094 161.7880859,158.7148438 C162.2099609,159.1425781 162.8017578,159.3564453 163.5634766,159.3564453 C164.1552734,159.3564453 164.7148438,159.2949219 165.2421875,159.171875 C165.7695313,159.0488281 166.3203125,158.8525391 166.8945313,158.5830078 L166.8945313,160.6572266 C166.4257813,160.8916016 165.9248047,161.065918 165.3916016,161.1801758 C164.8583984,161.2944336 164.2080078,161.3515625 163.4404297,161.3515625 Z M178.6982422,161.1757813 L176.0175781,161.1757813 L176.0175781,155.4365234 C176.0175781,154.7275391 175.8916016,154.1958008 175.6396484,153.8413086 C175.3876953,153.4868164 174.9863281,153.3095703 174.4355469,153.3095703 C173.6855469,153.3095703 173.1435547,153.5600586 172.8095703,154.0610352 C172.4755859,154.5620117 172.3085938,155.3925781 172.3085938,156.5527344 L172.3085938,161.1757813 L169.6279297,161.1757813 L169.6279297,151.3496094 L171.6757813,151.3496094 L172.0361328,152.6064453 L172.1855469,152.6064453 C172.484375,152.1318359 172.8959961,151.7729492 173.4204102,151.5297852 C173.9448242,151.2866211 174.5410156,151.1650391 175.2089844,151.1650391 C176.3515625,151.1650391 177.21875,151.4741211 177.8105469,152.0922852 C178.4023438,152.7104492 178.6982422,153.6025391 178.6982422,154.7685547 Z M188.3134766,158.2578125 C188.3134766,159.265625 187.9633789,160.0332031 187.2631836,160.5605469 C186.5629883,161.0878906 185.515625,161.3515625 184.1210938,161.3515625 C183.40625,161.3515625 182.796875,161.3032227 182.2929688,161.206543 C181.7890625,161.1098633 181.3173828,160.9677734 180.8779297,160.7802734 L180.8779297,158.5654297 C181.3759766,158.7998047 181.9370117,158.9960938 182.5610352,159.1542969 C183.1850586,159.3125 183.734375,159.3916016 184.2089844,159.3916016 C185.1816406,159.3916016 185.6679688,159.1103516 185.6679688,158.5478516 C185.6679688,158.3369141 185.6035156,158.1655273 185.4746094,158.0336914 C185.3457031,157.9018555 185.1230469,157.7524414 184.8066406,157.5854492 C184.4902344,157.418457 184.0683594,157.2236328 183.5410156,157.0009766 C182.7851563,156.6845703 182.2299805,156.3916016 181.8754883,156.1220703 C181.5209961,155.8525391 181.2631836,155.543457 181.1020508,155.1948242 C180.940918,154.8461914 180.8603516,154.4169922 180.8603516,153.9072266 C180.8603516,153.0341797 181.1987305,152.3588867 181.8754883,151.8813477 C182.5522461,151.4038086 183.5117188,151.1650391 184.7539063,151.1650391 C185.9375,151.1650391 187.0888672,151.4228516 188.2080078,151.9384766 L187.3994141,153.8720703 C186.9072266,153.6611328 186.4472656,153.4882813 186.0195313,153.3535156 C185.5917969,153.21875 185.1552734,153.1513672 184.7099609,153.1513672 C183.9189453,153.1513672 183.5234375,153.3652344 183.5234375,153.7929688 C183.5234375,154.0332031 183.6508789,154.2412109 183.9057617,154.4169922 C184.1606445,154.5927734 184.71875,154.8535156 185.5800781,155.1992188 C186.3476563,155.5097656 186.9101563,155.7998047 187.2675781,156.0693359 C187.625,156.3388672 187.8886719,156.6494141 188.0585938,157.0009766 C188.2285156,157.3525391 188.3134766,157.7714844 188.3134766,158.2578125 Z M190.2910156,148.8095703 C190.2910156,147.9365234 190.7773438,147.5 191.75,147.5 C192.7226563,147.5 193.2089844,147.9365234 193.2089844,148.8095703 C193.2089844,149.2255859 193.0874023,149.5493164 192.8442383,149.7807617 C192.6010742,150.012207 192.2363281,150.1279297 191.75,150.1279297 C190.7773438,150.1279297 190.2910156,149.6884766 190.2910156,148.8095703 Z M193.0859375,161.1757813 L190.4052734,161.1757813 L190.4052734,151.3496094 L193.0859375,151.3496094 Z M198.0341797,156.2451172 C198.0341797,157.2177734 198.1938477,157.953125 198.5131836,158.4511719 C198.8325195,158.9492188 199.3525391,159.1982422 200.0732422,159.1982422 C200.7880859,159.1982422 201.3022461,158.9506836 201.6157227,158.4555664 C201.9291992,157.9604492 202.0859375,157.2236328 202.0859375,156.2451172 C202.0859375,155.2724609 201.9277344,154.5429688 201.6113281,154.0566406 C201.2949219,153.5703125 200.7763672,153.3271484 200.0556641,153.3271484 C199.3408203,153.3271484 198.8251953,153.5688477 198.5087891,154.0522461 C198.1923828,154.5356445 198.0341797,155.2666016 198.0341797,156.2451172 Z M204.828125,156.2451172 C204.828125,157.8447418 204.40625,159.0957031 203.5625,159.9980469 C202.71875,160.9003906 201.5439453,161.3515625 200.0380859,161.3515625 C199.0947266,161.3515625 198.2626953,161.1450195 197.5419922,160.7319336 C196.8212891,160.3188477 196.2675781,159.7255859 195.8808594,158.9521484 C195.4941406,158.1787109 195.3007813,157.2763672 195.3007813,156.2451172 C195.3007813,154.6396332 195.7197266,153.3916016 196.5576172,152.5009766 C197.3955078,151.6103516 198.5732422,151.1650391 200.0908203,151.1650391 C201.0341797,151.1650391 201.8662109,151.3701172 202.5869141,151.7802734 C203.3076172,152.1904297 203.8613281,152.7792969 204.2480469,153.546875 C204.6347656,154.3144531 204.828125,155.2138672 204.828125,156.2451172 Z M216.1132813,161.1757813 L213.4326172,161.1757813 L213.4326172,155.4365234 C213.4326172,154.7275391 213.3066406,154.1958008 213.0546875,153.8413086 C212.8027344,153.4868164 212.4013672,153.3095703 211.8505859,153.3095703 C211.1005859,153.3095703 210.5585938,153.5600586 210.2246094,154.0610352 C209.890625,154.5620117 209.7236328,155.3925781 209.7236328,156.5527344 L209.7236328,161.1757813 L207.0429688,161.1757813 L207.0429688,151.3496094 L209.0908203,151.3496094 L209.4511719,152.6064453 L209.6005859,152.6064453 C209.8994141,152.1318359 210.3110352,151.7729492 210.8354492,151.5297852 C211.3598633,151.2866211 211.9560547,151.1650391 212.6240234,151.1650391 C213.7666016,151.1650391 214.6337891,151.4741211 215.2255859,152.0922852 C215.8173828,152.7104492 216.1132813,153.6025391 216.1132813,154.7685547 Z M225.7285156,158.2578125 C225.7285156,159.265625 225.378418,160.0332031 224.6782227,160.5605469 C223.9780273,161.0878906 222.9306641,161.3515625 221.5361328,161.3515625 C220.8212891,161.3515625 220.2119141,161.3032227 219.7080078,161.206543 C219.2041016,161.1098633 218.7324219,160.9677734 218.2929688,160.7802734 L218.2929688,158.5654297 C218.7910156,158.7998047 219.3520508,158.9960938 219.9760742,159.1542969 C220.6000977,159.3125 221.1494141,159.3916016 221.6240234,159.3916016 C222.5966797,159.3916016 223.0830078,159.1103516 223.0830078,158.5478516 C223.0830078,158.3369141 223.0185547,158.1655273 222.8896484,158.0336914 C222.7607422,157.9018555 222.5380859,157.7524414 222.2216797,157.5854492 C221.9052734,157.418457 221.4833984,157.2236328 220.9560547,157.0009766 C220.2001953,156.6845703 219.6450195,156.3916016 219.2905273,156.1220703 C218.9360352,155.8525391 218.6782227,155.543457 218.5170898,155.1948242 C218.355957,154.8461914 218.2753906,154.4169922 218.2753906,153.9072266 C218.2753906,153.0341797 218.6137695,152.3588867 219.2905273,151.8813477 C219.9672852,151.4038086 220.9267578,151.1650391 222.1689453,151.1650391 C223.3525391,151.1650391 224.5039063,151.4228516 225.6230469,151.9384766 L224.8144531,153.8720703 C224.3222656,153.6611328 223.8623047,153.4882813 223.4345703,153.3535156 C223.0068359,153.21875 222.5703125,153.1513672 222.125,153.1513672 C221.3339844,153.1513672 220.9384766,153.3652344 220.9384766,153.7929688 C220.9384766,154.0332031 221.065918,154.2412109 221.3208008,154.4169922 C221.5756836,154.5927734 222.1337891,154.8535156 222.9951172,155.1992188 C223.7626953,155.5097656 224.3251953,155.7998047 224.6826172,156.0693359 C225.0400391,156.3388672 225.3037109,156.6494141 225.4736328,157.0009766 C225.6435547,157.3525391 225.7285156,157.7714844 225.7285156,158.2578125 Z M226.4140625,161.1757813" style="fill:rgb(55,96,146);stroke:none" clip-path="url(#clip6)" />
<clipPath id="clip7"><path d="M263,14 L478,14 L478,55 L263,55 L263,14 Z" /></clipPath>
<path d="M270,16 C267.2385864,16 265,18.2385712 265,21 L265,47 C265,49.7614288 267.2385864,52 270,52 L470,52 C472.7614136,52 475,49.7614288 475,47 L475,21 C475,18.2385712 472.7614136,16 470,16 Z M270,16" style="fill:rgb(220,230,242);stroke:none" clip-path="url(#clip7)" />
<clipPath id="clip8"><path d="M263,14 L478,14 L478,55 L263,55 L263,14 Z" /></clipPath>
<path d="M270,16 C267.2385864,16 265,18.2385712 265,21 L265,47 C265,49.7614288 267.2385864,52 270,52 L470,52 C472.7614136,52 475,49.7614288 475,47 L475,21 C475,18.2385712 472.7614136,16 470,16 Z M270,16" style="fill:none;stroke:rgb(85,142,213);stroke-width:2" clip-path="url(#clip8)" />
<clipPath id="clip9"><path d="M277,23 L464,23 L464,46 L277,46 L277,23 Z" /></clipPath>
<path d="M287.1848145,39.3464355 L286.029541,36.3947754 L282.3098145,36.3947754 L281.1672363,39.3464355 L280.0754395,39.3464355 L283.7443848,30.0280762 L284.6520996,30.0280762 L288.302002,39.3464355 Z M285.6931152,35.423584 L284.6140137,32.5480957 C284.4743652,32.1841583 284.3305054,31.7377167 284.182373,31.2087402 C284.0892944,31.6149902 283.9559937,32.0614395 283.7824707,32.5480957 L282.6906738,35.423584 Z M290.4304199,35.4870605 L290.4304199,39.3464355 L289.3513184,39.3464355 L289.3513184,30.0661621 L291.8967285,30.0661621 C293.0350952,30.0661621 293.8761292,30.2840958 294.4199219,30.7199707 C294.9637146,31.1558456 295.2355957,31.8117599 295.2355957,32.6877441 C295.2355957,33.9149628 294.6135254,34.7443848 293.3693848,35.1760254 L295.8894043,39.3464355 L294.6135254,39.3464355 L292.3664551,35.4870605 Z M290.4304199,34.5603027 L291.9094238,34.5603027 C292.6711426,34.5603027 293.2297363,34.4090195 293.5852051,34.1064453 C293.9406738,33.8038712 294.1184082,33.3500214 294.1184082,32.744873 C294.1184082,32.1312637 293.9375,31.6890488 293.5756836,31.4182129 C293.2138672,31.147377 292.6330566,31.0119629 291.833252,31.0119629 L290.4304199,31.0119629 Z M297.3513184,30.0661621 L299.9729004,30.0661621 C301.2043457,30.0661621 302.0951233,30.2502441 302.6452637,30.6184082 C303.1954041,30.9865723 303.470459,31.5684357 303.470459,32.3640137 C303.470459,32.9141464 303.3170776,33.3679962 303.0102539,33.7255859 C302.7034302,34.0831757 302.2559509,34.3148575 301.6677246,34.4206543 L301.6677246,34.4841309 C303.0769043,34.7253418 303.7814941,35.4658966 303.7814941,36.7058105 C303.7814941,37.5352402 303.5011597,38.1826935 302.9404297,38.6481934 C302.3796997,39.1136932 301.5957947,39.3464355 300.588623,39.3464355 L297.3513184,39.3464355 Z M298.4304199,34.0397949 L300.2077637,34.0397949 C300.9694824,34.0397949 301.5175171,33.9202499 301.8518066,33.6811523 C302.1860962,33.4420547 302.3532715,33.0389862 302.3532715,32.4719238 C302.3532715,31.951416 302.1670532,31.5758438 301.7946777,31.3452148 C301.4223022,31.1145859 300.829834,30.9992676 300.017334,30.9992676 L298.4304199,30.9992676 Z M298.4304199,34.9538574 L298.4304199,38.4260254 L300.3664551,38.4260254 C301.1154785,38.4260254 301.6793823,38.2810898 302.0581055,37.9912109 C302.4368286,37.7013321 302.6262207,37.2474823 302.6262207,36.6296387 C302.6262207,36.0541153 302.4326172,35.6309433 302.0454102,35.3601074 C301.6582031,35.0892715 301.0689392,34.9538574 300.2775879,34.9538574 Z M305.0402832,38.673584 C305.0402832,38.3900528 305.1047974,38.175293 305.2338867,38.0292969 C305.3629761,37.8833008 305.5480957,37.8103027 305.7893066,37.8103027 C306.034729,37.8103027 306.2262573,37.8833008 306.3637695,38.0292969 C306.5012817,38.175293 306.5700684,38.3900528 306.5700684,38.673584 C306.5700684,38.9486542 306.5002441,39.1602402 306.3605957,39.3083496 C306.2209473,39.456459 306.0305176,39.5305176 305.7893066,39.5305176 C305.5734863,39.5305176 305.3947144,39.4638672 305.2529297,39.3305664 C305.111145,39.1972656 305.0402832,38.9782715 305.0402832,38.673584 Z M305.0402832,33.0686035 C305.0402832,32.4973145 305.289978,32.2116699 305.7893066,32.2116699 C306.3098145,32.2116699 306.5700684,32.4973145 306.5700684,33.0686035 C306.5700684,33.3436737 306.5002441,33.5552597 306.3605957,33.7033691 C306.2209473,33.8514786 306.0305176,33.9255371 305.7893066,33.9255371 C305.5734863,33.9255371 305.3947144,33.8588867 305.2529297,33.7255859 C305.111145,33.5922852 305.0402832,33.373291 305.0402832,33.0686035 Z M317.1848145,39.3464355 L316.029541,36.3947754 L312.3098145,36.3947754 L311.1672363,39.3464355 L310.0754395,39.3464355 L313.7443848,30.0280762 L314.6520996,30.0280762 L318.302002,39.3464355 Z M315.6931152,35.423584 L314.6140137,32.5480957 C314.4743652,32.1841583 314.3305054,31.7377167 314.182373,31.2087402 C314.0892944,31.6149902 313.9559937,32.0614395 313.7824707,32.5480957 L312.6906738,35.423584 Z M322.3664551,32.2624512 C322.675354,32.2624512 322.9525757,32.2878418 323.197998,32.338623 L323.052002,33.3161621 C322.7642212,33.2526855 322.5103149,33.2209473 322.2902832,33.2209473 C321.7274475,33.2209473 321.2460938,33.4494629 320.8461914,33.9064941 C320.4462891,34.3635254 320.2463379,34.9326935 320.2463379,35.6140137 L320.2463379,39.3464355 L319.192627,39.3464355 L319.192627,32.3894043 L320.0622559,32.3894043 L320.1828613,33.6779785 L320.2336426,33.6779785 C320.4917603,33.225174 320.8027954,32.8760605 321.166748,32.6306152 C321.5307007,32.38517 321.930603,32.2624512 322.3664551,32.2624512 Z M326.9729004,39.4733887 C325.9657288,39.4733887 325.1860352,39.163414 324.6337891,38.543457 C324.081543,37.9235001 323.8054199,37.0464706 323.8054199,35.9123535 C323.8054199,34.7486115 324.0857544,33.8493652 324.6464844,33.2145996 C325.2072144,32.579834 326.0059204,32.2624512 327.0427246,32.2624512 C327.3770142,32.2624512 327.7113647,32.2984238 328.0456543,32.3703613 C328.3799438,32.4422989 328.642334,32.5269394 328.8327637,32.6242676 L328.5090332,33.5192871 C328.2763062,33.4261856 328.0223999,33.3489609 327.7473145,33.2875977 C327.472229,33.2262344 327.2289429,33.1955566 327.017334,33.1955566 C325.6039124,33.1955566 324.8972168,34.0969162 324.8972168,35.8996582 C324.8972168,36.7544785 325.0696411,37.4104004 325.4145508,37.8674316 C325.7594604,38.3244629 326.2704163,38.5529785 326.9475098,38.5529785 C327.5272827,38.5529785 328.1218262,38.4281387 328.7312012,38.1784668 L328.7312012,39.1115723 C328.265686,39.3527832 327.6796265,39.4733887 326.9729004,39.4733887 Z M334.9533691,39.3464355 L334.9533691,34.8459473 C334.9533691,34.2788849 334.8242798,33.8557129 334.5661621,33.576416 C334.3080444,33.2971191 333.9039001,33.1574707 333.3537598,33.1574707 C332.6216431,33.1574707 332.0874023,33.3563614 331.7509766,33.7541504 C331.4145508,34.1519394 331.2463379,34.803627 331.2463379,35.7092285 L331.2463379,39.3464355 L330.192627,39.3464355 L330.192627,29.4694824 L331.2463379,29.4694824 L331.2463379,32.4592285 C331.2463379,32.8189316 331.2294312,33.1172714 331.1955566,33.354248 L331.2590332,33.354248 C331.4663696,33.0199356 331.7615356,32.7565079 332.1445313,32.5639648 C332.5275269,32.3714218 332.9644165,32.2751465 333.4553223,32.2751465 C334.3059082,32.2751465 334.9438477,32.477211 335.3691406,32.8813477 C335.7944336,33.2854843 336.0070801,33.9276505 336.0070801,34.8078613 L336.0070801,39.3464355 Z M339.2463379,39.3464355 L338.192627,39.3464355 L338.192627,32.3894043 L339.2463379,32.3894043 Z M338.1037598,30.5041504 C338.1037598,30.2629395 338.1630249,30.0862656 338.2814941,29.9741211 C338.3999634,29.8619766 338.5480957,29.8059082 338.7258301,29.8059082 C338.8950806,29.8059082 339.0410767,29.8630371 339.1638184,29.9772949 C339.2865601,30.0915527 339.3479004,30.2671738 339.3479004,30.5041504 C339.3479004,30.741127 339.2865601,30.9178085 339.1638184,31.0341797 C339.0410767,31.1505508 338.8950806,31.2087402 338.7258301,31.2087402 C338.5480957,31.2087402 338.3999634,31.1505508 338.2814941,31.0341797 C338.1630249,30.9178085 338.1037598,30.741127 338.1037598,30.5041504 Z M343.4396973,38.6037598 C343.6259155,38.6037598 343.8057251,38.590004 343.979248,38.5625 C344.152771,38.534996 344.2902832,38.5064316 344.3918457,38.4768066 L344.3918457,39.282959 C344.2775879,39.3379745 344.109375,39.383461 343.887207,39.4194336 C343.6650391,39.4554062 343.4650879,39.4733887 343.2873535,39.4733887 C341.9416504,39.4733887 341.2687988,38.7645721 341.2687988,37.3469238 L341.2687988,33.208252 L340.2722168,33.208252 L340.2722168,32.7004395 L341.2687988,32.2624512 L341.7131348,30.7770996 L342.3225098,30.7770996 L342.3225098,32.3894043 L344.3410645,32.3894043 L344.3410645,33.208252 L342.3225098,33.208252 L342.3225098,37.3024902 C342.3225098,37.7214355 342.421936,38.0430527 342.6208496,38.267334 C342.8197632,38.4916153 343.0927124,38.6037598 343.4396973,38.6037598 Z M349.1315918,39.4733887 C348.1032715,39.4733887 347.2918396,39.1602402 346.6972656,38.5339355 C346.1026917,37.9076309 345.8054199,37.0380096 345.8054199,35.9250488 C345.8054199,34.803627 346.081543,33.9128418 346.6337891,33.2526855 C347.1860352,32.5925293 347.9276428,32.2624512 348.8586426,32.2624512 C349.7304077,32.2624512 350.420166,32.5491486 350.9279785,33.1225586 C351.435791,33.6959686 351.6896973,34.4523849 351.6896973,35.3918457 L351.6896973,36.0583496 L346.8972168,36.0583496 C346.918396,36.8750839 347.1246948,37.4950333 347.5161133,37.9182129 C347.9075317,38.3413925 348.4587402,38.5529785 349.1696777,38.5529785 C349.9187012,38.5529785 350.6592407,38.3964081 351.3913574,38.083252 L351.3913574,39.0227051 C351.0189819,39.1835098 350.666687,39.2988281 350.3344727,39.3686523 C350.0022583,39.4384766 349.6013184,39.4733887 349.1315918,39.4733887 Z M348.8459473,33.1447754 C348.2873535,33.1447754 347.84198,33.3267365 347.5097656,33.6906738 C347.1775513,34.0546112 346.9818726,34.5581818 346.9226074,35.201416 L350.5598145,35.201416 C350.5598145,34.5370255 350.4116821,34.0281601 350.1154785,33.6748047 C349.8192749,33.3214493 349.3960876,33.1447754 348.8459473,33.1447754 Z M355.9729004,39.4733887 C354.9657288,39.4733887 354.1860352,39.163414 353.6337891,38.543457 C353.081543,37.9235001 352.8054199,37.0464706 352.8054199,35.9123535 C352.8054199,34.7486115 353.0857544,33.8493652 353.6464844,33.2145996 C354.2072144,32.579834 355.0059204,32.2624512 356.0427246,32.2624512 C356.3770142,32.2624512 356.7113647,32.2984238 357.0456543,32.3703613 C357.3799438,32.4422989 357.642334,32.5269394 357.8327637,32.6242676 L357.5090332,33.5192871 C357.2763062,33.4261856 357.0223999,33.3489609 356.7473145,33.2875977 C356.472229,33.2262344 356.2289429,33.1955566 356.017334,33.1955566 C354.6039124,33.1955566 353.8972168,34.0969162 353.8972168,35.8996582 C353.8972168,36.7544785 354.0696411,37.4104004 354.4145508,37.8674316 C354.7594604,38.3244629 355.2704163,38.5529785 355.9475098,38.5529785 C356.5272827,38.5529785 357.1218262,38.4281387 357.7312012,38.1784668 L357.7312012,39.1115723 C357.265686,39.3527832 356.6796265,39.4733887 355.9729004,39.4733887 Z M361.4396973,38.6037598 C361.6259155,38.6037598 361.8057251,38.590004 361.979248,38.5625 C362.152771,38.534996 362.2902832,38.5064316 362.3918457,38.4768066 L362.3918457,39.282959 C362.2775879,39.3379745 362.109375,39.383461 361.887207,39.4194336 C361.6650391,39.4554062 361.4650879,39.4733887 361.2873535,39.4733887 C359.9416504,39.4733887 359.2687988,38.7645721 359.2687988,37.3469238 L359.2687988,33.208252 L358.2722168,33.208252 L358.2722168,32.7004395 L359.2687988,32.2624512 L359.7131348,30.7770996 L360.3225098,30.7770996 L360.3225098,32.3894043 L362.3410645,32.3894043 L362.3410645,33.208252 L360.3225098,33.208252 L360.3225098,37.3024902 C360.3225098,37.7214355 360.421936,38.0430527 360.6208496,38.267334 C360.8197632,38.4916153 361.0927124,38.6037598 361.4396973,38.6037598 Z M365.1828613,32.3894043 L365.1828613,36.9025879 C365.1828613,37.4696503 365.3119507,37.8928223 365.5700684,38.1721191 C365.828186,38.451416 366.2323303,38.5910645 366.7824707,38.5910645 C367.5103455,38.5910645 368.0424805,38.3921738 368.3789063,37.9943848 C368.715332,37.5965958 368.8835449,36.9470291 368.8835449,36.0456543 L368.8835449,32.3894043 L369.9372559,32.3894043 L369.9372559,39.3464355 L369.067627,39.3464355 L368.9152832,38.4133301 L368.8581543,38.4133301 C368.642334,38.7561035 368.3429565,39.0184708 367.9599609,39.2004395 C367.5769653,39.3824081 367.1400757,39.4733887 366.6491699,39.4733887 C365.8027954,39.4733887 365.1691284,39.2723846 364.7480469,38.8703613 C364.3269653,38.468338 364.1164551,37.825119 364.1164551,36.9406738 L364.1164551,32.3894043 Z M375.3664551,32.2624512 C375.675354,32.2624512 375.9525757,32.2878418 376.197998,32.338623 L376.052002,33.3161621 C375.7642212,33.2526855 375.5103149,33.2209473 375.2902832,33.2209473 C374.7274475,33.2209473 374.2460938,33.4494629 373.8461914,33.9064941 C373.4462891,34.3635254 373.2463379,34.9326935 373.2463379,35.6140137 L373.2463379,39.3464355 L372.192627,39.3464355 L372.192627,32.3894043 L373.0622559,32.3894043 L373.1828613,33.6779785 L373.2336426,33.6779785 C373.4917603,33.225174 373.8027954,32.8760605 374.166748,32.6306152 C374.5307007,32.38517 374.930603,32.2624512 375.3664551,32.2624512 Z M380.1315918,39.4733887 C379.1032715,39.4733887 378.2918396,39.1602402 377.6972656,38.5339355 C377.1026917,37.9076309 376.8054199,37.0380096 376.8054199,35.9250488 C376.8054199,34.803627 377.081543,33.9128418 377.6337891,33.2526855 C378.1860352,32.5925293 378.9276428,32.2624512 379.8586426,32.2624512 C380.7304077,32.2624512 381.420166,32.5491486 381.9279785,33.1225586 C382.435791,33.6959686 382.6896973,34.4523849 382.6896973,35.3918457 L382.6896973,36.0583496 L377.8972168,36.0583496 C377.918396,36.8750839 378.1246948,37.4950333 378.5161133,37.9182129 C378.9075317,38.3413925 379.4587402,38.5529785 380.1696777,38.5529785 C380.9187012,38.5529785 381.6592407,38.3964081 382.3913574,38.083252 L382.3913574,39.0227051 C382.0189819,39.1835098 381.666687,39.2988281 381.3344727,39.3686523 C381.0022583,39.4384766 380.6013184,39.4733887 380.1315918,39.4733887 Z M379.8459473,33.1447754 C379.2873535,33.1447754 378.84198,33.3267365 378.5097656,33.6906738 C378.1775513,34.0546112 377.9818726,34.5581818 377.9226074,35.201416 L381.5598145,35.201416 C381.5598145,34.5370255 381.4116821,34.0281601 381.1154785,33.6748047 C380.8192749,33.3214493 380.3960876,33.1447754 379.8459473,33.1447754 Z M385.4304199,35.4870605 L385.4304199,39.3464355 L384.3513184,39.3464355 L384.3513184,30.0661621 L386.8967285,30.0661621 C388.0350952,30.0661621 388.8761292,30.2840958 389.4199219,30.7199707 C389.9637146,31.1558456 390.2355957,31.8117599 390.2355957,32.6877441 C390.2355957,33.9149628 389.6135254,34.7443848 388.3693848,35.1760254 L390.8894043,39.3464355 L389.6135254,39.3464355 L387.3664551,35.4870605 Z M385.4304199,34.5603027 L386.9094238,34.5603027 C387.6711426,34.5603027 388.2297363,34.4090195 388.5852051,34.1064453 C388.9406738,33.8038712 389.1184082,33.3500214 389.1184082,32.744873 C389.1184082,32.1312637 388.9375,31.6890488 388.5756836,31.4182129 C388.2138672,31.147377 387.6330566,31.0119629 386.833252,31.0119629 L385.4304199,31.0119629 Z M395.1315918,39.4733887 C394.1032715,39.4733887 393.2918396,39.1602402 392.6972656,38.5339355 C392.1026917,37.9076309 391.8054199,37.0380096 391.8054199,35.9250488 C391.8054199,34.803627 392.081543,33.9128418 392.6337891,33.2526855 C393.1860352,32.5925293 393.9276428,32.2624512 394.8586426,32.2624512 C395.7304077,32.2624512 396.420166,32.5491486 396.9279785,33.1225586 C397.435791,33.6959686 397.6896973,34.4523849 397.6896973,35.3918457 L397.6896973,36.0583496 L392.8972168,36.0583496 C392.918396,36.8750839 393.1246948,37.4950333 393.5161133,37.9182129 C393.9075317,38.3413925 394.4587402,38.5529785 395.1696777,38.5529785 C395.9187012,38.5529785 396.6592712,38.3964081 397.3913574,38.083252 L397.3913574,39.0227051 C397.0189514,39.1835098 396.6666565,39.2988281 396.3344727,39.3686523 C396.0022888,39.4384766 395.6013184,39.4733887 395.1315918,39.4733887 Z M394.8459473,33.1447754 C394.2873535,33.1447754 393.84198,33.3267365 393.5097656,33.6906738 C393.1775513,34.0546112 392.9818726,34.5581818 392.9226074,35.201416 L396.5598145,35.201416 C396.5598145,34.5370255 396.4117126,34.0281601 396.1154785,33.6748047 C395.8192749,33.3214493 395.3960876,33.1447754 394.8459473,33.1447754 Z M400.7160645,39.3464355 L398.0754395,32.3894043 L399.2053223,32.3894043 L400.7033691,36.5153809 C401.0419006,37.4802322 401.2408142,38.1065216 401.3000488,38.3942871 L401.3508301,38.3942871 C401.3973694,38.1700058 401.5444336,37.7055664 401.7919922,37.0009766 C402.0395508,36.2963867 402.5949707,34.7592087 403.458252,32.3894043 L404.5881348,32.3894043 L401.9475098,39.3464355 Z M407.2463379,39.3464355 L406.192627,39.3464355 L406.192627,32.3894043 L407.2463379,32.3894043 Z M406.1037598,30.5041504 C406.1037598,30.2629395 406.1629944,30.0862656 406.2814941,29.9741211 C406.3999939,29.8619766 406.5480957,29.8059082 406.7258301,29.8059082 C406.8951111,29.8059082 407.0411072,29.8630371 407.1638184,29.9772949 C407.2865295,30.0915527 407.3479004,30.2671738 407.3479004,30.5041504 C407.3479004,30.741127 407.2865295,30.9178085 407.1638184,31.0341797 C407.0411072,31.1505508 406.8951111,31.2087402 406.7258301,31.2087402 C406.5480957,31.2087402 406.3999939,31.1505508 406.2814941,31.0341797 C406.1629944,30.9178085 406.1037598,30.741127 406.1037598,30.5041504 Z M412.1315918,39.4733887 C411.1032715,39.4733887 410.2918396,39.1602402 409.6972656,38.5339355 C409.1026917,37.9076309 408.8054199,37.0380096 408.8054199,35.9250488 C408.8054199,34.803627 409.081543,33.9128418 409.6337891,33.2526855 C410.1860352,32.5925293 410.9276428,32.2624512 411.8586426,32.2624512 C412.7303772,32.2624512 413.420166,32.5491486 413.9279785,33.1225586 C414.435791,33.6959686 414.6896973,34.4523849 414.6896973,35.3918457 L414.6896973,36.0583496 L409.8972168,36.0583496 C409.9183655,36.8750839 410.1246643,37.4950333 410.5161133,37.9182129 C410.9075623,38.3413925 411.4587402,38.5529785 412.1696777,38.5529785 C412.9187012,38.5529785 413.6592712,38.3964081 414.3913574,38.083252 L414.3913574,39.0227051 C414.0189514,39.1835098 413.6666565,39.2988281 413.3344727,39.3686523 C413.0022888,39.4384766 412.6013184,39.4733887 412.1315918,39.4733887 Z M411.8459473,33.1447754 C411.2873535,33.1447754 410.8419495,33.3267365 410.5097656,33.6906738 C410.1775818,34.0546112 409.981842,34.5581818 409.9226074,35.201416 L413.5598145,35.201416 C413.5598145,34.5370255 413.4117126,34.0281601 413.1154785,33.6748047 C412.8192444,33.3214493 412.3960876,33.1447754 411.8459473,33.1447754 Z M421.8737793,39.3464355 L420.5979004,35.2648926 C420.5174866,35.0152206 420.3672791,34.4481659 420.1472168,33.5637207 L420.0964355,33.5637207 C419.9271545,34.3042831 419.7790527,34.8755646 419.6520996,35.2775879 L418.3381348,39.3464355 L417.1193848,39.3464355 L415.2214355,32.3894043 L416.3259277,32.3894043 C416.7745056,34.1371307 417.1162109,35.4680099 417.3510742,36.3820801 C417.5859375,37.2961502 417.7203064,37.9118652 417.7541504,38.229248 L417.8049316,38.229248 C417.8514709,37.9880371 417.9266052,37.6759491 418.0302734,37.2929688 C418.1339417,36.9099884 418.223877,36.6063614 418.3000488,36.3820801 L419.5759277,32.3894043 L420.7185059,32.3894043 L421.9626465,36.3820801 C422.1996155,37.1099472 422.3604431,37.7214355 422.4450684,38.2165527 L422.4958496,38.2165527 C422.5127869,38.064209 422.5582581,37.8293457 422.6323242,37.5119629 C422.7063904,37.1945801 423.1475525,35.4870758 423.9558105,32.3894043 L425.0476074,32.3894043 L423.1242676,39.3464355 Z M426.3513184,30.0661621 L428.9729004,30.0661621 C430.2043457,30.0661621 431.0951233,30.2502441 431.6452637,30.6184082 C432.1954041,30.9865723 432.470459,31.5684357 432.470459,32.3640137 C432.470459,32.9141464 432.3170471,33.3679962 432.0102539,33.7255859 C431.7034607,34.0831757 431.2559509,34.3148575 430.6677246,34.4206543 L430.6677246,34.4841309 C432.0769043,34.7253418 432.7814941,35.4658966 432.7814941,36.7058105 C432.7814941,37.5352402 432.5011292,38.1826935 431.9404297,38.6481934 C431.3797302,39.1136932 430.5957947,39.3464355 429.588623,39.3464355 L426.3513184,39.3464355 Z M427.4304199,34.0397949 L429.2077637,34.0397949 C429.9694824,34.0397949 430.5174866,33.9202499 430.8518066,33.6811523 C431.1861267,33.4420547 431.3532715,33.0389862 431.3532715,32.4719238 C431.3532715,31.951416 431.1670837,31.5758438 430.7946777,31.3452148 C430.4222717,31.1145859 429.829834,30.9992676 429.017334,30.9992676 L427.4304199,30.9992676 Z M427.4304199,34.9538574 L427.4304199,38.4260254 L429.3664551,38.4260254 C430.1154785,38.4260254 430.6793518,38.2810898 431.0581055,37.9912109 C431.4368591,37.7013321 431.6262207,37.2474823 431.6262207,36.6296387 C431.6262207,36.0541153 431.4326172,35.6309433 431.0454102,35.3601074 C430.6582031,35.0892715 430.0689392,34.9538574 429.2775879,34.9538574 Z M440.1975098,35.8615723 C440.1975098,36.9956894 439.9118652,37.8811798 439.3405762,38.5180664 C438.7692871,39.154953 437.980072,39.4733887 436.9729004,39.4733887 C436.3508301,39.4733887 435.798584,39.3273926 435.3161621,39.0354004 C434.8337402,38.7434082 434.4613342,38.3244629 434.1989746,37.7785645 C433.936615,37.232666 433.8054199,36.5936737 433.8054199,35.8615723 C433.8054199,34.7274551 434.0889587,33.8440781 434.6560059,33.2114258 C435.223053,32.5787735 436.0101624,32.2624512 437.017334,32.2624512 C437.9906311,32.2624512 438.7640076,32.5861816 439.3374023,33.2336426 C439.9107971,33.8811035 440.1975098,34.7570724 440.1975098,35.8615723 Z M434.8972168,35.8615723 C434.8972168,36.7502518 435.0749512,37.4273224 435.4304199,37.8928223 C435.7858887,38.3583221 436.3085022,38.5910645 436.998291,38.5910645 C437.6880798,38.5910645 438.2117615,38.359375 438.5693359,37.8959961 C438.9269104,37.4326172 439.1057129,36.7544785 439.1057129,35.8615723 C439.1057129,34.9771271 438.9269104,34.3053436 438.5693359,33.8461914 C438.2117615,33.3870392 437.6838379,33.1574707 436.9855957,33.1574707 C436.2958069,33.1574707 435.7752991,33.3838654 435.4240723,33.8366699 C435.0728455,34.2894745 434.8972168,34.9644318 434.8972168,35.8615723 Z M446.4709473,39.3464355 L446.2614746,38.3562012 L446.2106934,38.3562012 C445.863678,38.7920761 445.5177307,39.0872421 445.1728516,39.2416992 C444.8279724,39.3961563 444.3973694,39.4733887 443.8811035,39.4733887 C443.1913147,39.4733887 442.6507263,39.2956543 442.2592773,38.9401855 C441.8678284,38.5847168 441.6721191,38.0790253 441.6721191,37.4230957 C441.6721191,36.0181427 442.7956543,35.2818222 445.0427246,35.2141113 L446.2233887,35.1760254 L446.2233887,34.7443848 C446.2233887,34.1984863 446.105957,33.7954102 445.8710938,33.5351563 C445.6362305,33.2749023 445.2606506,33.1447754 444.7443848,33.1447754 C444.1646423,33.1447754 443.5086975,33.3225098 442.7766113,33.6779785 L442.4528809,32.8718262 C442.7956543,32.6856308 443.1712341,32.5396347 443.5795898,32.4338379 C443.9879456,32.3280411 444.3973694,32.2751465 444.8078613,32.2751465 C445.6372986,32.2751465 446.2519531,32.4592285 446.6518555,32.8273926 C447.0517578,33.1955566 447.251709,33.785881 447.251709,34.5983887 L447.251709,39.3464355 Z M444.0905762,38.6037598 C444.7464905,38.6037598 445.2617188,38.423912 445.6362305,38.064209 C446.0107422,37.7045059 446.197998,37.2009277 446.197998,36.5534668 L446.197998,35.9250488 L445.1442871,35.9694824 C444.3063965,35.9991074 443.702301,36.1292343 443.3320313,36.3598633 C442.9617615,36.5904922 442.7766113,36.9491348 442.7766113,37.435791 C442.7766113,37.8166504 442.8919373,38.1065292 443.1225586,38.3054199 C443.3531799,38.5043106 443.6758728,38.6037598 444.0905762,38.6037598 Z M452.3664551,32.2624512 C452.6753845,32.2624512 452.9525452,32.2878418 453.197998,32.338623 L453.052002,33.3161621 C452.7642517,33.2526855 452.5103455,33.2209473 452.2902832,33.2209473 C451.7274475,33.2209473 451.2460938,33.4494629 450.8461914,33.9064941 C450.4462891,34.3635254 450.2463379,34.9326935 450.2463379,35.6140137 L450.2463379,39.3464355 L449.192627,39.3464355 L449.192627,32.3894043 L450.0622559,32.3894043 L450.1828613,33.6779785 L450.2336426,33.6779785 C450.4917908,33.225174 450.8028259,32.8760605 451.166748,32.6306152 C451.5306702,32.38517 451.9305725,32.2624512 452.3664551,32.2624512 Z M458.9279785,38.4133301 L458.8708496,38.4133301 C458.3841858,39.1200409 457.6563416,39.4733887 456.6872559,39.4733887 C455.7774353,39.4733887 455.0696716,39.1623535 454.5639648,38.5402832 C454.0582581,37.9182129 453.8054199,37.0337753 453.8054199,35.8869629 C453.8054199,34.7401505 454.0593262,33.8493652 454.5671387,33.2145996 C455.0749512,32.579834 455.7816467,32.2624512 456.6872559,32.2624512 C457.6309509,32.2624512 458.3545837,32.6052246 458.8581543,33.2907715 L458.9406738,33.2907715 L458.8962402,32.7893066 L458.8708496,32.3005371 L458.8708496,29.4694824 L459.9245605,29.4694824 L459.9245605,39.3464355 L459.067627,39.3464355 Z M456.8205566,38.5910645 C457.5399475,38.5910645 458.0615234,38.3953476 458.3852539,38.0039063 C458.7089844,37.6124649 458.8708496,36.9808807 458.8708496,36.1091309 L458.8708496,35.8869629 C458.8708496,34.9009552 458.7068787,34.1974335 458.3789063,33.7763672 C458.0509338,33.3553009 457.5272522,33.1447754 456.8078613,33.1447754 C456.190033,33.1447754 455.7171326,33.3849258 455.3891602,33.8652344 C455.0611877,34.3455429 454.8972168,35.023674 454.8972168,35.8996582 C454.8972168,36.7883377 455.0601501,37.4590607 455.3859863,37.9118652 C455.7118225,38.3646698 456.190033,38.5910645 456.8205566,38.5910645 Z M461.041748,39.3464355" style="fill:rgb(23,55,94);stroke:none" clip-path="url(#clip9)" />
<clipPath id="clip10"><path d="M314,83 L477,83 L477,124 L314,124 L314,83 Z" /></clipPath>
<path d="M321,85 C318.2385864,85 316,87.2385712 316,90 L316,116 C316,118.7614288 318.2385864,121 321,121 L469,121 C471.7614136,121 474,118.7614288 474,116 L474,90 C474,87.2385712 471.7614136,85 469,85 Z M321,85" style="fill:rgb(220,230,242);stroke:none" clip-path="url(#clip10)" />
<clipPath id="clip11"><path d="M314,83 L477,83 L477,124 L314,124 L314,83 Z" /></clipPath>
<path d="M321,85 C318.2385864,85 316,87.2385712 316,90 L316,116 C316,118.7614288 318.2385864,121 321,121 L469,121 C471.7614136,121 474,118.7614288 474,116 L474,90 C474,87.2385712 471.7614136,85 469,85 Z M321,85" style="fill:none;stroke:rgb(85,142,213);stroke-width:2" clip-path="url(#clip11)" />
<clipPath id="clip12"><path d="M328,92 L463,92 L463,115 L328,115 L328,92 Z" /></clipPath>
<path d="M336.5087891,106.8769531 L331.3354492,106.8769531 L331.3354492,97.5966797 L336.5087891,97.5966797 L336.5087891,98.5551758 L332.4145508,98.5551758 L332.4145508,101.5449219 L336.2612305,101.5449219 L336.2612305,102.4970703 L332.4145508,102.4970703 L332.4145508,105.9121094 L336.5087891,105.9121094 Z M344.5117188,106.8769531 L343.2866211,106.8769531 L340.7919922,102.7954102 L338.2529297,106.8769531 L337.1103516,106.8769531 L340.1953125,102.0273438 L337.3198242,97.5966797 L338.5131836,97.5966797 L340.8173828,101.2719727 L343.140625,97.5966797 L344.2895508,97.5966797 L341.4140625,101.9892578 Z M349.1918945,106.8769531 L348.112793,106.8769531 L348.112793,98.5551758 L345.1738281,98.5551758 L345.1738281,97.5966797 L352.1308594,97.5966797 L352.1308594,98.5551758 L349.1918945,98.5551758 Z M353.0244141,106.2041016 C353.0244141,105.9205704 353.0889282,105.7058105 353.2180176,105.5598145 C353.3471069,105.4138184 353.5322266,105.3408203 353.7734375,105.3408203 C354.0188599,105.3408203 354.2103882,105.4138184 354.3479004,105.5598145 C354.4854126,105.7058105 354.5541992,105.9205704 354.5541992,106.2041016 C354.5541992,106.4791718 354.484375,106.6907501 354.3447266,106.8388672 C354.2050781,106.9869843 354.0146484,107.0610352 353.7734375,107.0610352 C353.5576172,107.0610352 353.3788452,106.9943848 353.2370605,106.861084 C353.0952759,106.7277832 353.0244141,106.5087891 353.0244141,106.2041016 Z M353.0244141,100.5991211 C353.0244141,100.027832 353.2741089,99.7421875 353.7734375,99.7421875 C354.2939453,99.7421875 354.5541992,100.027832 354.5541992,100.5991211 C354.5541992,100.8741913 354.484375,101.0857697 354.3447266,101.2338867 C354.2050781,101.3820038 354.0146484,101.4560547 353.7734375,101.4560547 C353.5576172,101.4560547 353.3788452,101.3894043 353.2370605,101.2561035 C353.0952759,101.1228027 353.0244141,100.9038086 353.0244141,100.5991211 Z M367.390625,102.2241211 C367.390625,103.7094803 367.0150757,104.8774414 366.263916,105.7280273 C365.5127563,106.5786133 364.4685974,107.0039063 363.1313477,107.0039063 C361.7644653,107.0039063 360.7097168,106.5860214 359.967041,105.7502441 C359.2243652,104.9144669 358.8530273,103.7348709 358.8530273,102.2114258 C358.8530273,100.700676 359.2254028,99.529541 359.9702148,98.697998 C360.7150269,97.8664551 361.7729492,97.4506836 363.144043,97.4506836 C364.4770508,97.4506836 365.5180664,97.8738556 366.2670898,98.7202148 C367.0161133,99.5665741 367.390625,100.7345276 367.390625,102.2241211 Z M359.9956055,102.2241211 C359.9956055,103.4809647 360.2632446,104.4341583 360.798584,105.0837402 C361.3339233,105.7333221 362.1114807,106.0581055 363.1313477,106.0581055 C364.159668,106.0581055 364.9361877,105.734375 365.4609375,105.0869141 C365.9856873,104.4394531 366.2480469,103.485199 366.2480469,102.2241211 C366.2480469,100.9757385 365.9867554,100.0288925 365.4641113,99.3835449 C364.9414673,98.7381973 364.1681519,98.4155273 363.144043,98.4155273 C362.1157227,98.4155273 361.3339233,98.7403107 360.798584,99.3898926 C360.2632446,100.0394745 359.9956055,100.9842072 359.9956055,102.2241211 Z M372.4140625,107.0039063 C371.9612427,107.0039063 371.5476074,106.9203339 371.1730957,106.7531738 C370.798584,106.5860138 370.484375,106.3289413 370.2304688,105.9819336 L370.1542969,105.9819336 C370.2050781,106.3881836 370.2304688,106.7732697 370.2304688,107.137207 L370.2304688,110 L369.1767578,110 L369.1767578,99.9199219 L370.0336914,99.9199219 L370.1796875,100.8720703 L370.2304688,100.8720703 C370.5012817,100.4912109 370.8165894,100.2161484 371.1762695,100.046875 C371.5359497,99.8776016 371.9485474,99.7929688 372.4140625,99.7929688 C373.3366089,99.7929688 374.048584,100.1082306 374.5500488,100.7387695 C375.0515137,101.3693085 375.3022461,102.2537384 375.3022461,103.3920898 C375.3022461,104.534668 375.0473022,105.4222794 374.5373535,106.0549316 C374.0274048,106.6875839 373.3196716,107.0039063 372.4140625,107.0039063 Z M372.2617188,100.6879883 C371.5507813,100.6879883 371.0366211,100.8847656 370.7192383,101.2783203 C370.4018555,101.671875 370.2389526,102.298172 370.2304688,103.1572266 L370.2304688,103.3920898 C370.2304688,104.3696289 370.3933716,105.068924 370.7192383,105.4899902 C371.045105,105.9110565 371.567688,106.121582 372.2871094,106.121582 C372.888031,106.121582 373.3588257,105.8782578 373.6994629,105.3916016 C374.0401001,104.9049454 374.2104492,104.2342148 374.2104492,103.3793945 C374.2104492,102.511879 374.0401001,101.8464355 373.6994629,101.3830566 C373.3588257,100.9196777 372.8795776,100.6879883 372.2617188,100.6879883 Z M380.1157227,107.0039063 C379.0874023,107.0039063 378.2759705,106.6907578 377.6813965,106.0644531 C377.0868225,105.4381485 376.7895508,104.5685272 376.7895508,103.4555664 C376.7895508,102.334137 377.0656738,101.4433594 377.6179199,100.7832031 C378.170166,100.1230469 378.9117737,99.7929688 379.8427734,99.7929688 C380.7145386,99.7929688 381.4042969,100.0796661 381.9121094,100.6530762 C382.4199219,101.2264862 382.6738281,101.9829102 382.6738281,102.9223633 L382.6738281,103.5888672 L377.8813477,103.5888672 C377.9025269,104.4056015 378.1088257,105.0255508 378.5002441,105.4487305 C378.8916626,105.8719101 379.4428711,106.0834961 380.1538086,106.0834961 C380.902832,106.0834961 381.6433716,105.9269257 382.3754883,105.6137695 L382.3754883,106.5532227 C382.0031128,106.714035 381.6508179,106.8293457 381.3186035,106.8991699 C380.9863892,106.9689941 380.5854492,107.0039063 380.1157227,107.0039063 Z M379.8300781,100.675293 C379.2714844,100.675293 378.8261108,100.857254 378.4938965,101.2211914 C378.1616821,101.5851288 377.9660034,102.0886993 377.9067383,102.7319336 L381.5439453,102.7319336 C381.5439453,102.067543 381.395813,101.5586777 381.0996094,101.2053223 C380.8034058,100.8519669 380.3802185,100.675293 379.8300781,100.675293 Z M388.9375,106.8769531 L388.9375,102.3764648 C388.9375,101.8094025 388.8084106,101.3862305 388.550293,101.1069336 C388.2921753,100.8276367 387.888031,100.6879883 387.3378906,100.6879883 C386.6100159,100.6879883 386.0768433,100.8847656 385.7382813,101.2783203 C385.3997192,101.671875 385.2304688,102.3214417 385.2304688,103.2270508 L385.2304688,106.8769531 L384.1767578,106.8769531 L384.1767578,99.9199219 L385.0336914,99.9199219 L385.2050781,100.8720703 L385.2558594,100.8720703 C385.4716797,100.5292969 385.774231,100.2637558 386.1635742,100.0754395 C386.5529175,99.8871231 386.9866333,99.7929688 387.4648438,99.7929688 C388.3027344,99.7929688 388.9332886,99.9950333 389.3564453,100.3991699 C389.7796021,100.8033066 389.9912109,101.449707 389.9912109,102.3383789 L389.9912109,106.8769531 Z M396.4169922,102.0146484 L399.5717773,102.0146484 L399.5717773,106.527832 C399.0809021,106.6844101 398.581543,106.8029022 398.0737305,106.8833008 C397.565918,106.9636993 396.9776917,107.0039063 396.309082,107.0039063 C394.9041138,107.0039063 393.8102417,106.5860214 393.0273438,105.7502441 C392.2444458,104.9144669 391.8530273,103.7433319 391.8530273,102.2368164 C391.8530273,101.2719727 392.0466309,100.4266815 392.4338379,99.7009277 C392.8210449,98.975174 393.3785706,98.4208221 394.1064453,98.0378418 C394.8343201,97.6548615 395.6870117,97.4633789 396.6645508,97.4633789 C397.6547852,97.4633789 398.577301,97.64534 399.4321289,98.0092773 L399.0131836,98.9614258 C398.175293,98.605957 397.3691406,98.4282227 396.5947266,98.4282227 C395.4648438,98.4282227 394.5825195,98.7646484 393.9477539,99.4375 C393.3129883,100.1103516 392.9956055,101.0434494 392.9956055,102.2368164 C392.9956055,103.4894257 393.3013306,104.4394531 393.9128418,105.0869141 C394.524353,105.734375 395.4225159,106.0581055 396.6074219,106.0581055 C397.2506409,106.0581055 397.8790588,105.9840546 398.4926758,105.8359375 L398.4926758,102.9794922 L396.4169922,102.9794922 Z M401.3354492,106.8769531 L401.3354492,97.5966797 L402.4145508,97.5966797 L402.4145508,105.8994141 L406.5087891,105.8994141 L406.5087891,106.8769531 Z M412.7001953,106.8769531 L410.0595703,99.9199219 L411.1894531,99.9199219 L412.6875,104.0458984 C413.0260315,105.0107422 413.2249451,105.6370392 413.2841797,105.9248047 L413.3349609,105.9248047 C413.3815002,105.7005157 413.5285645,105.236084 413.776123,104.5314941 C414.0236816,103.8269043 414.5791016,102.2897263 415.4423828,99.9199219 L416.5722656,99.9199219 L413.9316406,106.8769531 Z M421.1157227,107.0039063 C420.0874023,107.0039063 419.2759705,106.6907578 418.6813965,106.0644531 C418.0868225,105.4381485 417.7895508,104.5685272 417.7895508,103.4555664 C417.7895508,102.334137 418.0656738,101.4433594 418.6179199,100.7832031 C419.170166,100.1230469 419.9117737,99.7929688 420.8427734,99.7929688 C421.7145081,99.7929688 422.4042969,100.0796661 422.9121094,100.6530762 C423.4199219,101.2264862 423.6738281,101.9829102 423.6738281,102.9223633 L423.6738281,103.5888672 L418.8813477,103.5888672 C418.9024963,104.4056015 419.1087952,105.0255508 419.5002441,105.4487305 C419.8916931,105.8719101 420.4428711,106.0834961 421.1538086,106.0834961 C421.902832,106.0834961 422.6434021,105.9269257 423.3754883,105.6137695 L423.3754883,106.5532227 C423.0030823,106.714035 422.6507874,106.8293457 422.3186035,106.8991699 C421.9864197,106.9689941 421.5854492,107.0039063 421.1157227,107.0039063 Z M420.8300781,100.675293 C420.2714844,100.675293 419.8260803,100.857254 419.4938965,101.2211914 C419.1617126,101.5851288 418.9659729,102.0886993 418.9067383,102.7319336 L422.5439453,102.7319336 C422.5439453,102.067543 422.3958435,101.5586777 422.0996094,101.2053223 C421.8033752,100.8519669 421.3802185,100.675293 420.8300781,100.675293 Z M429.9375,106.8769531 L429.9375,102.3764648 C429.9375,101.8094025 429.8084412,101.3862305 429.550293,101.1069336 C429.2921448,100.8276367 428.888031,100.6879883 428.3378906,100.6879883 C427.6100159,100.6879883 427.0768127,100.8847656 426.7382813,101.2783203 C426.3997498,101.671875 426.2304688,102.3214417 426.2304688,103.2270508 L426.2304688,106.8769531 L425.1767578,106.8769531 L425.1767578,99.9199219 L426.0336914,99.9199219 L426.2050781,100.8720703 L426.2558594,100.8720703 C426.4716797,100.5292969 426.7742615,100.2637558 427.1635742,100.0754395 C427.552887,99.8871231 427.9866638,99.7929688 428.4648438,99.7929688 C429.3027344,99.7929688 429.9332581,99.9950333 430.3564453,100.3991699 C430.7796326,100.8033066 430.9912109,101.449707 430.9912109,102.3383789 L430.9912109,106.8769531 Z M437.9121094,105.9438477 L437.8549805,105.9438477 C437.3683167,106.6505585 436.6404724,107.0039063 435.6713867,107.0039063 C434.7615662,107.0039063 434.0538025,106.6928711 433.5480957,106.0708008 C433.0423889,105.4487305 432.7895508,104.5643005 432.7895508,103.4174805 C432.7895508,102.2706604 433.043457,101.3798828 433.5512695,100.7451172 C434.059082,100.1103516 434.7657776,99.7929688 435.6713867,99.7929688 C436.6150818,99.7929688 437.3387146,100.1357422 437.8422852,100.8212891 L437.9248047,100.8212891 L437.8803711,100.3198242 L437.8549805,99.8310547 L437.8549805,97 L438.9086914,97 L438.9086914,106.8769531 L438.0517578,106.8769531 Z M435.8046875,106.121582 C436.5240784,106.121582 437.0456543,105.9258652 437.3693848,105.5344238 C437.6931152,105.1429825 437.8549805,104.5113983 437.8549805,103.6396484 L437.8549805,103.4174805 C437.8549805,102.4314728 437.6910095,101.727951 437.3630371,101.3068848 C437.0350647,100.8858185 436.5113831,100.675293 435.7919922,100.675293 C435.1741638,100.675293 434.7012634,100.9154434 434.373291,101.395752 C434.0453186,101.8760605 433.8813477,102.5541992 433.8813477,103.4301758 C433.8813477,104.3188477 434.044281,104.9895782 434.3701172,105.4423828 C434.6959534,105.8951874 435.1741638,106.121582 435.8046875,106.121582 Z M447.1816406,103.3920898 C447.1816406,104.5262146 446.8959961,105.4116974 446.324707,106.048584 C445.753418,106.6854706 444.9642029,107.0039063 443.9570313,107.0039063 C443.3349609,107.0039063 442.7827148,106.8579102 442.300293,106.565918 C441.8178711,106.2739258 441.4454651,105.8549805 441.1831055,105.309082 C440.9207458,104.7631836 440.7895508,104.1241913 440.7895508,103.3920898 C440.7895508,102.2579651 441.0730896,101.3745956 441.6401367,100.7419434 C442.2071838,100.1092911 442.9942932,99.7929688 444.0014648,99.7929688 C444.974762,99.7929688 445.7481384,100.1166992 446.3215332,100.7641602 C446.894928,101.4116211 447.1816406,102.2875977 447.1816406,103.3920898 Z M441.8813477,103.3920898 C441.8813477,104.2807617 442.059082,104.95784 442.4145508,105.4233398 C442.7700195,105.8888397 443.2926331,106.121582 443.9824219,106.121582 C444.6722107,106.121582 445.1958923,105.8898926 445.5534668,105.4265137 C445.9110413,104.9631348 446.0898438,104.2850037 446.0898438,103.3920898 C446.0898438,102.5076447 445.9110413,101.8358612 445.5534668,101.376709 C445.1958923,100.9175568 444.6679688,100.6879883 443.9697266,100.6879883 C443.2799377,100.6879883 442.7594299,100.9143829 442.4082031,101.3671875 C442.0569763,101.8199921 441.8813477,102.4949493 441.8813477,103.3920898 Z M452.3505859,99.7929688 C452.6595154,99.7929688 452.936676,99.8183594 453.1821289,99.8691406 L453.0361328,100.8466797 C452.7483826,100.7832031 452.4944763,100.7514648 452.2744141,100.7514648 C451.7115784,100.7514648 451.2302246,100.9799805 450.8303223,101.4370117 C450.4304199,101.894043 450.2304688,102.4632111 450.2304688,103.1445313 L450.2304688,106.8769531 L449.1767578,106.8769531 L449.1767578,99.9199219 L450.0463867,99.9199219 L450.1669922,101.2084961 L450.2177734,101.2084961 C450.4759216,100.7556915 450.7869568,100.4065781 451.1508789,100.1611328 C451.514801,99.9156876 451.9147034,99.7929688 452.3505859,99.7929688 Z M458.6645508,104.9790039 C458.6645508,105.6264648 458.4233398,106.1258087 457.940918,106.4770508 C457.4584961,106.8282928 456.7814026,107.0039063 455.909668,107.0039063 C454.9871521,107.0039063 454.2677307,106.8579102 453.7514648,106.565918 L453.7514648,105.5883789 C454.0857849,105.7576523 454.4444275,105.8909454 454.8273926,105.9882813 C455.2103577,106.0856171 455.5795898,106.1342773 455.9350586,106.1342773 C456.485199,106.1342773 456.9083557,106.0464706 457.2045898,105.8708496 C457.500824,105.6952286 457.6489258,105.4275742 457.6489258,105.0678711 C457.6489258,104.7970352 457.5314941,104.5653534 457.2966309,104.3728027 C457.0617676,104.1802521 456.6036682,103.9528046 455.9223633,103.6904297 C455.2749023,103.4492188 454.8146973,103.2386932 454.541748,103.0588379 C454.2687988,102.8789825 454.0656738,102.6748047 453.932373,102.4462891 C453.7990723,102.2177734 453.7324219,101.9448242 453.7324219,101.6274414 C453.7324219,101.060379 453.9630432,100.6128769 454.4243164,100.2849121 C454.8855896,99.9569473 455.518219,99.7929688 456.3222656,99.7929688 C457.0712891,99.7929688 457.8033752,99.9453125 458.5185547,100.25 L458.144043,101.1069336 C457.4458008,100.8191681 456.8131409,100.675293 456.2460938,100.675293 C455.7467346,100.675293 455.3701172,100.7535782 455.1162109,100.9101563 C454.8623047,101.0667343 454.7353516,101.282547 454.7353516,101.5576172 C454.7353516,101.7438202 454.782959,101.902504 454.8781738,102.0336914 C454.9733887,102.1648788 455.1268005,102.2897186 455.3383789,102.4082031 C455.5499573,102.5266876 455.9562073,102.6980743 456.5571289,102.9223633 C457.3823242,103.2228241 457.9398499,103.5253906 458.2297363,103.8300781 C458.5196228,104.1347656 458.6645508,104.5177383 458.6645508,104.9790039 Z M459.2612305,106.8769531" style="fill:rgb(23,55,94);stroke:none" clip-path="url(#clip12)" />
<clipPath id="clip13"><path d="M264,153 L394,153 L394,404 L264,404 Z M270,272 C267.2385864,272 265,274.2385864 265,277 L265,303 C265,305.7614136 267.2385864,308 270,308 L312,308 C314.7614136,308 317,305.7614136 317,303 L317,277 C317,274.2385864 314.7614136,272 312,272 Z M270,272" /></clipPath>
<path d="M330,290 C332.222229,215.3333282 335.555542,178 340,178" style="fill:none;stroke:rgb(85,142,213)" clip-path="url(#clip13)" />
<clipPath id="clip14"><path d="M264,153 L394,153 L394,404 L264,404 Z M270,272 C267.2385864,272 265,274.2385864 265,277 L265,303 C265,305.7614136 267.2385864,308 270,308 L312,308 C314.7614136,308 317,305.7614136 317,303 L317,277 C317,274.2385864 314.7614136,272 312,272 Z M270,272" /></clipPath>
<path d="M330,290 C332.222229,234 335.555542,206 340,206" style="fill:none;stroke:rgb(85,142,213)" clip-path="url(#clip14)" />
<clipPath id="clip15"><path d="M264,153 L394,153 L394,404 L264,404 Z M270,272 C267.2385864,272 265,274.2385864 265,277 L265,303 C265,305.7614136 267.2385864,308 270,308 L312,308 C314.7614136,308 317,305.7614136 317,303 L317,277 C317,274.2385864 314.7614136,272 312,272 Z M270,272" /></clipPath>
<path d="M330,290 C332.222229,252.6666565 335.555542,234 340,234" style="fill:none;stroke:rgb(85,142,213)" clip-path="url(#clip15)" />
<clipPath id="clip16"><path d="M264,153 L394,153 L394,404 L264,404 Z M270,272 C267.2385864,272 265,274.2385864 265,277 L265,303 C265,305.7614136 267.2385864,308 270,308 L312,308 C314.7614136,308 317,305.7614136 317,303 L317,277 C317,274.2385864 314.7614136,272 312,272 Z M270,272" /></clipPath>
<path d="M330,290 C332.222229,271.3333435 335.555542,262 340,262" style="fill:none;stroke:rgb(85,142,213)" clip-path="url(#clip16)" />
<clipPath id="clip17"><path d="M264,153 L394,153 L394,404 L264,404 Z M270,272 C267.2385864,272 265,274.2385864 265,277 L265,303 C265,305.7614136 267.2385864,308 270,308 L312,308 C314.7614136,308 317,305.7614136 317,303 L317,277 C317,274.2385864 314.7614136,272 312,272 Z M270,272" /></clipPath>
<path d="M330,290 C332.222229,290 335.555542,290 340,290" style="fill:none;stroke:rgb(85,142,213)" clip-path="url(#clip17)" />
<clipPath id="clip18"><path d="M264,153 L394,153 L394,404 L264,404 Z M270,272 C267.2385864,272 265,274.2385864 265,277 L265,303 C265,305.7614136 267.2385864,308 270,308 L312,308 C314.7614136,308 317,305.7614136 317,303 L317,277 C317,274.2385864 314.7614136,272 312,272 Z M270,272" /></clipPath>
<path d="M330,290 C332.222229,308.666687 335.555542,318 340,318" style="fill:none;stroke:rgb(85,142,213)" clip-path="url(#clip18)" />
<clipPath id="clip19"><path d="M264,153 L394,153 L394,404 L264,404 Z M270,272 C267.2385864,272 265,274.2385864 265,277 L265,303 C265,305.7614136 267.2385864,308 270,308 L312,308 C314.7614136,308 317,305.7614136 317,303 L317,277 C317,274.2385864 314.7614136,272 312,272 Z M270,272" /></clipPath>
<path d="M330,290 C332.222229,327.333313 335.555542,346 340,346" style="fill:none;stroke:rgb(85,142,213)" clip-path="url(#clip19)" />
<clipPath id="clip20"><path d="M264,153 L394,153 L394,404 L264,404 Z M270,272 C267.2385864,272 265,274.2385864 265,277 L265,303 C265,305.7614136 267.2385864,308 270,308 L312,308 C314.7614136,308 317,305.7614136 317,303 L317,277 C317,274.2385864 314.7614136,272 312,272 Z M270,272" /></clipPath>
<path d="M330,290 C332.222229,346 335.555542,374 340,374" style="fill:none;stroke:rgb(85,142,213)" clip-path="url(#clip20)" />
<clipPath id="clip21"><path d="M264,153 L394,153 L394,404 L264,404 Z M270,272 C267.2385864,272 265,274.2385864 265,277 L265,303 C265,305.7614136 267.2385864,308 270,308 L312,308 C314.7614136,308 317,305.7614136 317,303 L317,277 C317,274.2385864 314.7614136,272 312,272 Z M270,272" /></clipPath>
<path d="M330,290 C332.222229,364.666687 335.555542,402 340,402" style="fill:none;stroke:rgb(85,142,213)" clip-path="url(#clip21)" />
<clipPath id="clip22"><path d="M263,152 L395,152 L395,405 L263,405 L263,152 Z" /></clipPath>
<path d="M317,290 L330,290" style="fill:none;stroke:rgb(85,142,213)" clip-path="url(#clip22)" />
<clipPath id="clip23"><path d="M263,270 L320,270 L320,311 L263,311 L263,270 Z" /></clipPath>
<path d="M270,272 C267.2385864,272 265,274.2385864 265,277 L265,303 C265,305.7614136 267.2385864,308 270,308 L312,308 C314.7614136,308 317,305.7614136 317,303 L317,277 C317,274.2385864 314.7614136,272 312,272 Z M270,272" style="fill:rgb(220,230,242);stroke:none" clip-path="url(#clip23)" />
<clipPath id="clip24"><path d="M263,270 L320,270 L320,311 L263,311 L263,270 Z" /></clipPath>
<path d="M270,272 C267.2385864,272 265,274.2385864 265,277 L265,303 C265,305.7614136 267.2385864,308 270,308 L312,308 C314.7614136,308 317,305.7614136 317,303 L317,277 C317,274.2385864 314.7614136,272 312,272 Z M270,272" style="fill:none;stroke:rgb(85,142,213);stroke-width:2" clip-path="url(#clip24)" />
<clipPath id="clip25"><path d="M277,279 L306,279 L306,302 L277,302 L277,279 Z" /></clipPath>
<path d="M283.3840332,295.5019531 C282.3557129,295.5019531 281.544281,295.1888123 280.949707,294.5625 C280.3551331,293.9361877 280.0578613,293.0665894 280.0578613,291.9536133 C280.0578613,290.8321838 280.3339844,289.9414063 280.8862305,289.28125 C281.4384766,288.6210938 282.1800842,288.2910156 283.111084,288.2910156 C283.9828491,288.2910156 284.6726074,288.5776978 285.1804199,289.151123 C285.6882324,289.7245483 285.9421387,290.480957 285.9421387,291.4204102 L285.9421387,292.0869141 L281.1496582,292.0869141 C281.1708374,292.903656 281.3771362,293.5236206 281.7685547,293.9467773 C282.1599731,294.3699341 282.7111816,294.581543 283.4221191,294.581543 C284.1711426,294.581543 284.9116821,294.4249878 285.6437988,294.1118164 L285.6437988,295.0512695 C285.2714233,295.2120972 284.9191284,295.3273926 284.5869141,295.3972168 C284.2546997,295.467041 283.8537598,295.5019531 283.3840332,295.5019531 Z M283.0983887,289.1733398 C282.5397949,289.1733398 282.0944214,289.3552856 281.762207,289.7192383 C281.4299927,290.0831909 281.234314,290.586731 281.1750488,291.2299805 L284.8122559,291.2299805 C284.8122559,290.5655823 284.6641235,290.0567017 284.3679199,289.7033691 C284.0717163,289.3500366 283.6485291,289.1733398 283.0983887,289.1733398 Z M288.4987793,295.375 L287.4450684,295.375 L287.4450684,285.4980469 L288.4987793,285.4980469 Z M294.9328613,293.4770508 C294.9328613,294.1245117 294.6916504,294.6238403 294.2092285,294.9750977 C293.7268066,295.326355 293.0497437,295.5019531 292.1779785,295.5019531 C291.2554321,295.5019531 290.5360718,295.355957 290.0197754,295.0639648 L290.0197754,294.0864258 C290.3540649,294.2556763 290.7127075,294.3889771 291.0957031,294.4863281 C291.4786987,294.5836792 291.8479004,294.6323242 292.2033691,294.6323242 C292.7535095,294.6323242 293.1766968,294.5444946 293.4729004,294.3688965 C293.769104,294.1932983 293.9172363,293.9255981 293.9172363,293.565918 C293.9172363,293.295105 293.7998047,293.0634155 293.5649414,292.8708496 C293.3300781,292.6782837 292.8720093,292.4508667 292.1906738,292.1884766 C291.5432129,291.9472656 291.0830078,291.7367554 290.8100586,291.5568848 C290.5371094,291.3770142 290.3339844,291.1728516 290.2006836,290.9443359 C290.0673828,290.7158203 290.0007324,290.4428711 290.0007324,290.1254883 C290.0007324,289.5584106 290.2313843,289.1109009 290.692627,288.782959 C291.1538696,288.4550171 291.7865295,288.2910156 292.5905762,288.2910156 C293.3395996,288.2910156 294.0716858,288.4433594 294.7868652,288.7480469 L294.4123535,289.6049805 C293.7141113,289.3171997 293.0814819,289.1733398 292.5144043,289.1733398 C292.0150757,289.1733398 291.6384277,289.2516479 291.3845215,289.4082031 C291.1306152,289.5647583 291.0036621,289.7805786 291.0036621,290.0556641 C291.0036621,290.2418823 291.0512695,290.4005737 291.1464844,290.5317383 C291.2416992,290.6629028 291.3950806,290.7877808 291.6066895,290.90625 C291.8182983,291.0247192 292.2245178,291.196106 292.8254395,291.4204102 C293.6506348,291.7208862 294.2081909,292.0234375 294.4980469,292.328125 C294.7879028,292.6328125 294.9328613,293.0158081 294.9328613,293.4770508 Z M299.3840332,295.5019531 C298.3557129,295.5019531 297.544281,295.1888123 296.949707,294.5625 C296.3551331,293.9361877 296.0578613,293.0665894 296.0578613,291.9536133 C296.0578613,290.8321838 296.3339844,289.9414063 296.8862305,289.28125 C297.4384766,288.6210938 298.1800842,288.2910156 299.111084,288.2910156 C299.9828491,288.2910156 300.6726074,288.5776978 301.1804199,289.151123 C301.6882324,289.7245483 301.9421387,290.480957 301.9421387,291.4204102 L301.9421387,292.0869141 L297.1496582,292.0869141 C297.1708374,292.903656 297.3771362,293.5236206 297.7685547,293.9467773 C298.1599731,294.3699341 298.7111816,294.581543 299.4221191,294.581543 C300.1711426,294.581543 300.9116821,294.4249878 301.6437988,294.1118164 L301.6437988,295.0512695 C301.2714233,295.2120972 300.9191284,295.3273926 300.5869141,295.3972168 C300.2546997,295.467041 299.8537598,295.5019531 299.3840332,295.5019531 Z M299.0983887,289.1733398 C298.5397949,289.1733398 298.0944214,289.3552856 297.762207,289.7192383 C297.4299927,290.0831909 297.234314,290.586731 297.1750488,291.2299805 L300.8122559,291.2299805 C300.8122559,290.5655823 300.6641235,290.0567017 300.3679199,289.7033691 C300.0717163,289.3500366 299.6485291,289.1733398 299.0983887,289.1733398 Z M302.6213379,295.375" style="fill:rgb(23,55,94);stroke:none" clip-path="url(#clip25)" />
<clipPath id="clip26"><path d="M318,284 L331,284 L331,297 L318,297 L318,284 Z" /></clipPath>
<path d="M328.5,290 C328.5,287.5147095 326.4852905,285.5 324,285.5 C321.5147095,285.5 319.5,287.5147095 319.5,290 C319.5,292.4852905 321.5147095,294.5 324,294.5 C326.4852905,294.5 328.5,292.4852905 328.5,290 Z M328.5,290" style="fill:rgb(250,250,250);stroke:none" clip-path="url(#clip26)" />
<clipPath id="clip27"><path d="M318,284 L331,284 L331,297 L318,297 L318,284 Z" /></clipPath>
<path d="M328.5,290 C328.5,287.5147095 326.4852905,285.5 324,285.5 C321.5147095,285.5 319.5,287.5147095 319.5,290 C319.5,292.4852905 321.5147095,294.5 324,294.5 C326.4852905,294.5 328.5,292.4852905 328.5,290 Z M328.5,290" style="fill:none;stroke:rgb(85,142,213)" clip-path="url(#clip27)" />
<clipPath id="clip28"><path d="M318,284 L331,284 L331,297 L318,297 L318,284 Z" /></clipPath>
<path d="M322,290 L326,290" style="fill:none;stroke:rgb(150,160,200)" clip-path="url(#clip28)" />
<clipPath id="clip29"><path d="M337,152 L380,152 L380,181 L337,181 L337,152 Z" /></clipPath>
<path d="M340,178 L376,178 Z M340,178" style="fill:none;stroke:rgb(85,142,213);stroke-width:3" clip-path="url(#clip29)" />
<clipPath id="clip30"><path d="M349,157 L368,157 L368,176 L349,176 L349,157 Z" /></clipPath>
<path d="M357.6567383,170.0693359 L356.8266602,170.0693359 L356.8266602,166.7099609 L353.0668945,166.7099609 L353.0668945,170.0693359 L352.2368164,170.0693359 L352.2368164,162.9306641 L353.0668945,162.9306641 L353.0668945,165.9677734 L356.8266602,165.9677734 L356.8266602,162.9306641 L357.6567383,162.9306641 Z M363.7631836,165.0107422 C363.7631836,165.7333984 363.5166016,166.2892303 363.0234375,166.6782227 C362.5302734,167.067215 361.824707,167.2617188 360.9067383,167.2617188 L360.0668945,167.2617188 L360.0668945,170.0693359 L359.2368164,170.0693359 L359.2368164,162.9306641 L361.0874023,162.9306641 C362.8712769,162.9306641 363.7631836,163.6240234 363.7631836,165.0107422 Z M360.0668945,166.5488281 L360.8139648,166.5488281 C361.5496521,166.5488281 362.0818481,166.4300079 362.4106445,166.1923828 C362.7394409,165.9547577 362.9038086,165.5738983 362.9038086,165.0498047 C362.9038086,164.5777893 362.7492065,164.2262421 362.4399414,163.9951172 C362.1306763,163.7639923 361.6489258,163.6484375 360.9946289,163.6484375 L360.0668945,163.6484375 Z M364.2758789,170.0693359" style="fill:rgb(0,0,0);stroke:none" clip-path="url(#clip30)" />
<clipPath id="clip31"><path d="M337,180 L385,180 L385,209 L337,209 L337,180 Z" /></clipPath>
<path d="M340,206 L381,206 Z M340,206" style="fill:none;stroke:rgb(85,142,213);stroke-width:3" clip-path="url(#clip31)" />
<clipPath id="clip32"><path d="M349,185 L373,185 L373,204 L349,204 L349,185 Z" /></clipPath>
<path d="M352.4648438,198.0693359 L352.4648438,190.9306641 L353.2949219,190.9306641 L353.2949219,198.0693359 Z M355.4648438,190.9306641 L357.4814453,190.9306641 C358.4287109,190.9306641 359.1139526,191.0722656 359.5371094,191.3554688 C359.9602661,191.6386719 360.171875,192.0862579 360.171875,192.6982422 C360.171875,193.1214294 360.053894,193.4705353 359.8178711,193.7456055 C359.5818481,194.0206757 359.2376099,194.1988983 358.7851563,194.2802734 L358.7851563,194.3291016 C359.8691406,194.5146484 360.4111328,195.0843048 360.4111328,196.0380859 C360.4111328,196.6761169 360.1954956,197.1741486 359.7641602,197.5322266 C359.3328247,197.8903046 358.7298279,198.0693359 357.9550781,198.0693359 L355.4648438,198.0693359 Z M356.2949219,193.9873047 L357.6621094,193.9873047 C358.2480469,193.9873047 358.6696167,193.8953552 358.9267578,193.7114258 C359.1838989,193.5274963 359.3125,193.217453 359.3125,192.78125 C359.3125,192.3808594 359.1692505,192.0919647 358.8828125,191.9145508 C358.5963745,191.7371368 358.140625,191.6484375 357.515625,191.6484375 L356.2949219,191.6484375 Z M356.2949219,194.6904297 L356.2949219,197.3613281 L357.7841797,197.3613281 C358.3603516,197.3613281 358.7941284,197.2498474 359.0854492,197.0268555 C359.37677,196.8038635 359.5224609,196.4547577 359.5224609,195.9794922 C359.5224609,195.5367737 359.3735352,195.2112732 359.0756836,195.0029297 C358.777832,194.7945862 358.3245544,194.6904297 357.7158203,194.6904297 Z M364.6240234,198.0693359 L362.2021484,191.7412109 L362.1630859,191.7412109 C362.2086792,192.2425232 362.2314453,192.8382111 362.2314453,193.5283203 L362.2314453,198.0693359 L361.4648438,198.0693359 L361.4648438,190.9306641 L362.7148438,190.9306641 L364.9755859,196.8193359 L365.0146484,196.8193359 L367.2949219,190.9306641 L368.5351563,190.9306641 L368.5351563,198.0693359 L367.7050781,198.0693359 L367.7050781,193.4697266 C367.7050781,192.9423828 367.7278442,192.3694763 367.7734375,191.7509766 L367.734375,191.7509766 L365.2929688,198.0693359 Z M369.5117188,198.0693359" style="fill:rgb(0,0,0);stroke:none" clip-path="url(#clip32)" />
<clipPath id="clip33"><path d="M337,208 L385,208 L385,237 L337,237 L337,208 Z" /></clipPath>
<path d="M340,234 L381,234 Z M340,234" style="fill:none;stroke:rgb(85,142,213);stroke-width:3" clip-path="url(#clip33)" />
<clipPath id="clip34"><path d="M349,213 L373,213 L373,232 L349,232 L349,213 Z" /></clipPath>
<path d="M357.2807617,226.0693359 L356.3041992,226.0693359 L353.7016602,222.6074219 L352.9545898,223.2714844 L352.9545898,226.0693359 L352.1245117,226.0693359 L352.1245117,218.9306641 L352.9545898,218.9306641 L352.9545898,222.4707031 L356.1918945,218.9306641 L357.1733398,218.9306641 L354.3022461,222.03125 Z M360.3217773,226.0693359 L359.4916992,226.0693359 L359.4916992,219.6679688 L357.230957,219.6679688 L357.230957,218.9306641 L362.5825195,218.9306641 L362.5825195,219.6679688 L360.3217773,219.6679688 Z M368.8754883,226.0693359 L367.9331055,226.0693359 L366.0141602,222.9296875 L364.0610352,226.0693359 L363.1821289,226.0693359 L365.5551758,222.3388672 L363.3432617,218.9306641 L364.2612305,218.9306641 L366.0336914,221.7578125 L367.8208008,218.9306641 L368.7045898,218.9306641 L366.4926758,222.3095703 Z M368.9145508,226.0693359" style="fill:rgb(0,0,0);stroke:none" clip-path="url(#clip34)" />
<clipPath id="clip35"><path d="M337,236 L395,236 L395,265 L337,265 L337,236 Z" /></clipPath>
<path d="M340,262 L391,262 Z M340,262" style="fill:none;stroke:rgb(85,142,213);stroke-width:3" clip-path="url(#clip35)" />
<clipPath id="clip36"><path d="M349,241 L383,241 L383,260 L349,260 L349,241 Z" /></clipPath>
<path d="M352.0102539,254.0693359 L352.0102539,246.9306641 L352.840332,246.9306641 L352.840332,254.0693359 Z M360.5864258,254.0693359 L359.6391602,254.0693359 L355.737793,248.078125 L355.6987305,248.078125 C355.7507935,248.78125 355.7768555,249.4257813 355.7768555,250.0117188 L355.7768555,254.0693359 L355.0102539,254.0693359 L355.0102539,246.9306641 L355.9477539,246.9306641 L359.8393555,252.8974609 L359.878418,252.8974609 C359.8718872,252.8095703 359.8572388,252.5271912 359.8344727,252.050293 C359.8117065,251.5733948 359.8035278,251.2324219 359.8100586,251.0273438 L359.8100586,246.9306641 L360.5864258,246.9306641 Z M365.2075195,254.0693359 L364.3774414,254.0693359 L364.3774414,247.6679688 L362.1166992,247.6679688 L362.1166992,246.9306641 L367.4682617,246.9306641 L367.4682617,247.6679688 L365.2075195,247.6679688 Z M372.9897461,254.0693359 L369.0102539,254.0693359 L369.0102539,246.9306641 L372.9897461,246.9306641 L372.9897461,247.6679688 L369.840332,247.6679688 L369.840332,249.9677734 L372.7993164,249.9677734 L372.7993164,250.7001953 L369.840332,250.7001953 L369.840332,253.3271484 L372.9897461,253.3271484 Z M375.0102539,254.0693359 L375.0102539,246.9306641 L375.840332,246.9306641 L375.840332,253.3173828 L378.9897461,253.3173828 L378.9897461,254.0693359 Z M379.2192383,254.0693359" style="fill:rgb(0,0,0);stroke:none" clip-path="url(#clip36)" />
<clipPath id="clip37"><path d="M337,264 L381,264 L381,293 L337,293 L337,264 Z" /></clipPath>
<path d="M340,290 L377,290 Z M340,290" style="fill:none;stroke:rgb(85,142,213);stroke-width:3" clip-path="url(#clip37)" />
<clipPath id="clip38"><path d="M349,269 L369,269 L369,288 L349,288 L349,269 Z" /></clipPath>
<path d="M357.5908203,282.0693359 L356.6435547,282.0693359 L352.7421875,276.078125 L352.703125,276.078125 C352.755188,276.78125 352.78125,277.4257813 352.78125,278.0117188 L352.78125,282.0693359 L352.0146484,282.0693359 L352.0146484,274.9306641 L352.9521484,274.9306641 L356.84375,280.8974609 L356.8828125,280.8974609 C356.8762817,280.8095703 356.8616333,280.5271912 356.8388672,280.050293 C356.8161011,279.5733948 356.8079224,279.2324219 356.8144531,279.0273438 L356.8144531,274.9306641 L357.5908203,274.9306641 Z M364.0917969,274.9306641 L364.9853516,274.9306641 L362.4121094,282.0693359 L361.5917969,282.0693359 L359.0332031,274.9306641 L359.9121094,274.9306641 L361.5527344,279.5498047 C361.7415161,280.0804138 361.8912964,280.596344 362.0019531,281.0976563 C362.1191406,280.5703125 362.2721558,280.0446167 362.4609375,279.5205078 Z M364.9853516,282.0693359" style="fill:rgb(0,0,0);stroke:none" clip-path="url(#clip38)" />
<clipPath id="clip39"><path d="M337,292 L393,292 L393,321 L337,321 L337,292 Z" /></clipPath>
<path d="M340,318 L389,318 Z M340,318" style="fill:none;stroke:rgb(85,142,213);stroke-width:3" clip-path="url(#clip39)" />
<clipPath id="clip40"><path d="M349,297 L381,297 L381,316 L349,316 L349,297 Z" /></clipPath>
<path d="M354.9858398,310.0717773 L352.5639648,303.7436523 L352.5249023,303.7436523 C352.5704956,304.2449341 352.5932617,304.8406372 352.5932617,305.5307617 L352.5932617,310.0717773 L351.8266602,310.0717773 L351.8266602,302.9331055 L353.0766602,302.9331055 L355.3374023,308.8217773 L355.3764648,308.8217773 L357.6567383,302.9331055 L358.8969727,302.9331055 L358.8969727,310.0717773 L358.0668945,310.0717773 L358.0668945,305.472168 C358.0668945,304.9448242 358.0896606,304.3719177 358.1352539,303.753418 L358.0961914,303.753418 L355.6547852,310.0717773 Z M364.8061523,310.0717773 L360.8266602,310.0717773 L360.8266602,302.9331055 L364.8061523,302.9331055 L364.8061523,303.6704102 L361.6567383,303.6704102 L361.6567383,305.9702148 L364.6157227,305.9702148 L364.6157227,306.7026367 L361.6567383,306.7026367 L361.6567383,309.3295898 L364.8061523,309.3295898 Z M370.8549805,308.1723633 C370.8549805,308.8006287 370.6271362,309.2905273 370.1713867,309.6420898 C369.7156372,309.9936523 369.097168,310.1694336 368.315918,310.1694336 C367.4695435,310.1694336 366.8185425,310.0603638 366.362793,309.8422852 L366.362793,309.0415039 C366.6557617,309.1652222 366.9747925,309.2628784 367.3198242,309.3344727 C367.664856,309.4060669 368.0066528,309.4418945 368.3452148,309.4418945 C368.8986206,309.4418945 369.3152466,309.3369141 369.5952148,309.1269531 C369.8751831,308.9169922 370.0151367,308.6248169 370.0151367,308.2504883 C370.0151367,308.0031128 369.9655151,307.8004761 369.8662109,307.6425781 C369.7669067,307.4846802 369.6008911,307.3390503 369.3681641,307.2055664 C369.135437,307.0720825 368.7814331,306.9207153 368.3061523,306.7514648 C367.6420898,306.513855 367.1676636,306.2322388 366.8828125,305.9067383 C366.5979614,305.5812378 366.4555664,305.1564331 366.4555664,304.6323242 C366.4555664,304.0821838 366.6622925,303.6443481 367.0756836,303.3188477 C367.4890747,302.9933472 368.0359497,302.8305664 368.7163086,302.8305664 C369.4259644,302.8305664 370.0786133,302.9607544 370.6743164,303.2211914 L370.4155273,303.9438477 C369.8263245,303.6964722 369.253418,303.5727539 368.6967773,303.5727539 C368.2573242,303.5727539 367.9138794,303.6671753 367.6665039,303.855957 C367.4191284,304.0447388 367.2954102,304.3068237 367.2954102,304.6420898 C367.2954102,304.8894653 367.3410034,305.0921021 367.4321289,305.25 C367.5232544,305.4078979 367.677063,305.5527344 367.8935547,305.6845703 C368.1100464,305.8164063 368.4412231,305.9620972 368.887207,306.121582 C369.6359253,306.3884888 370.151062,306.6749878 370.4326172,306.980957 C370.7141724,307.2869263 370.8549805,307.684082 370.8549805,308.1723633 Z M376.3139648,310.0717773 L375.425293,307.8012695 L372.5639648,307.8012695 L371.6850586,310.0717773 L370.8452148,310.0717773 L373.6674805,302.9038086 L374.3657227,302.9038086 L377.1733398,310.0717773 Z M375.1665039,307.0541992 L374.3364258,304.8422852 C374.2290039,304.5623169 374.1183472,304.2189331 374.0043945,303.8120117 C373.9328003,304.1245117 373.8302612,304.4679565 373.6967773,304.8422852 L372.8569336,307.0541992 Z M377.1733398,310.0717773" style="fill:rgb(0,0,0);stroke:none" clip-path="url(#clip40)" />
<clipPath id="clip41"><path d="M337,320 L382,320 L382,349 L337,349 L337,320 Z" /></clipPath>
<path d="M340,346 L378,346 Z M340,346" style="fill:none;stroke:rgb(85,142,213);stroke-width:3" clip-path="url(#clip41)" />
<clipPath id="clip42"><path d="M349,325 L370,325 L370,344 L349,344 L349,325 Z" /></clipPath>
<path d="M356.8452148,336.1723633 C356.8452148,336.8006287 356.6173706,337.2905273 356.1616211,337.6420898 C355.7058716,337.9936523 355.0874023,338.1694336 354.3061523,338.1694336 C353.4597778,338.1694336 352.8087769,338.0603638 352.3530273,337.8422852 L352.3530273,337.0415039 C352.6459961,337.1652222 352.9650269,337.2628784 353.3100586,337.3344727 C353.6550903,337.4060669 353.9968872,337.4418945 354.3354492,337.4418945 C354.888855,337.4418945 355.305481,337.3369141 355.5854492,337.1269531 C355.8654175,336.9169922 356.0053711,336.6248169 356.0053711,336.2504883 C356.0053711,336.0031128 355.9557495,335.8004761 355.8564453,335.6425781 C355.7571411,335.4846802 355.5911255,335.3390503 355.3583984,335.2055664 C355.1256714,335.0720825 354.7716675,334.9207153 354.2963867,334.7514648 C353.6323242,334.513855 353.1578979,334.2322388 352.8730469,333.9067383 C352.5881958,333.5812378 352.4458008,333.1564331 352.4458008,332.6323242 C352.4458008,332.0821838 352.6525269,331.6443481 353.065918,331.3188477 C353.4793091,330.9933472 354.0261841,330.8305664 354.706543,330.8305664 C355.4161987,330.8305664 356.0688477,330.9607544 356.6645508,331.2211914 L356.4057617,331.9438477 C355.8165588,331.6964722 355.2436523,331.5727539 354.6870117,331.5727539 C354.2475586,331.5727539 353.9041138,331.6671753 353.6567383,331.855957 C353.4093628,332.0447388 353.2856445,332.3068237 353.2856445,332.6420898 C353.2856445,332.8894653 353.3312378,333.0921021 353.4223633,333.25 C353.5134888,333.4078979 353.6672974,333.5527344 353.8837891,333.6845703 C354.1002808,333.8164063 354.4314575,333.9620972 354.8774414,334.121582 C355.6261597,334.3884888 356.1412964,334.6749878 356.4228516,334.980957 C356.7044067,335.2869263 356.8452148,335.684082 356.8452148,336.1723633 Z M360.956543,334.331543 L363.3833008,334.331543 L363.3833008,337.8032227 C363.0056763,337.923645 362.621582,338.0148315 362.230957,338.0766602 C361.840332,338.1384888 361.3878784,338.1694336 360.8735352,338.1694336 C359.7927856,338.1694336 358.951355,337.8479919 358.3491211,337.2050781 C357.7468872,336.5621643 357.4458008,335.6613159 357.4458008,334.5024414 C357.4458008,333.7602539 357.5947266,333.1100464 357.8925781,332.5517578 C358.1904297,331.9934692 358.6192932,331.5670776 359.1791992,331.2724609 C359.7391052,330.9778442 360.3950195,330.8305664 361.1469727,330.8305664 C361.9086914,330.8305664 362.6183167,330.97052 363.2758789,331.2504883 L362.9536133,331.9829102 C362.309082,331.7094727 361.6889648,331.5727539 361.0932617,331.5727539 C360.2241211,331.5727539 359.5454102,331.831543 359.0571289,332.3491211 C358.5688477,332.8666992 358.324707,333.5844727 358.324707,334.5024414 C358.324707,335.4660034 358.5598755,336.1967773 359.0302734,336.6948242 C359.5006714,337.1928711 360.1915588,337.4418945 361.1030273,337.4418945 C361.5978394,337.4418945 362.0812378,337.3849487 362.5532227,337.2709961 L362.5532227,335.0737305 L360.956543,335.0737305 Z M364.8168945,338.0717773 L364.8168945,330.9331055 L365.6469727,330.9331055 L365.6469727,338.0717773 Z M366.6235352,338.0717773" style="fill:rgb(0,0,0);stroke:none" clip-path="url(#clip42)" />
<clipPath id="clip43"><path d="M337,348 L387,348 L387,377 L337,377 L337,348 Z" /></clipPath>
<path d="M340,374 L383,374 Z M340,374" style="fill:none;stroke:rgb(85,142,213);stroke-width:3" clip-path="url(#clip43)" />
<clipPath id="clip44"><path d="M349,353 L375,353 L375,372 L349,372 L349,353 Z" /></clipPath>
<path d="M356.972168,364.1723633 C356.972168,364.8006287 356.7443237,365.2905273 356.2885742,365.6420898 C355.8328247,365.9936523 355.2143555,366.1694336 354.4331055,366.1694336 C353.586731,366.1694336 352.93573,366.0603638 352.4799805,365.8422852 L352.4799805,365.0415039 C352.7729492,365.1652222 353.09198,365.2628784 353.4370117,365.3344727 C353.7820435,365.4060669 354.1238403,365.4418945 354.4624023,365.4418945 C355.0158081,365.4418945 355.4324341,365.3369141 355.7124023,365.1269531 C355.9923706,364.9169922 356.1323242,364.6248169 356.1323242,364.2504883 C356.1323242,364.0031128 356.0827026,363.8004761 355.9833984,363.6425781 C355.8840942,363.4846802 355.7180786,363.3390503 355.4853516,363.2055664 C355.2526245,363.0720825 354.8986206,362.9207153 354.4233398,362.7514648 C353.7592773,362.513855 353.2848511,362.2322388 353,361.9067383 C352.7151489,361.5812378 352.5727539,361.1564331 352.5727539,360.6323242 C352.5727539,360.0821838 352.77948,359.6443481 353.1928711,359.3188477 C353.6062622,358.9933472 354.1531372,358.8305664 354.8334961,358.8305664 C355.5431519,358.8305664 356.1958008,358.9607544 356.7915039,359.2211914 L356.5327148,359.9438477 C355.943512,359.6964722 355.3706055,359.5727539 354.8139648,359.5727539 C354.3745117,359.5727539 354.0310669,359.6671753 353.7836914,359.855957 C353.5363159,360.0447388 353.4125977,360.3068237 353.4125977,360.6420898 C353.4125977,360.8894653 353.4581909,361.0921021 353.5493164,361.25 C353.6404419,361.4078979 353.7942505,361.5527344 354.0107422,361.6845703 C354.2272339,361.8164063 354.5584106,361.9620972 355.0043945,362.121582 C355.7531128,362.3884888 356.2682495,362.6749878 356.5498047,362.980957 C356.8313599,363.2869263 356.972168,363.684082 356.972168,364.1723633 Z M363.3344727,358.9331055 L363.3344727,363.5522461 C363.3344727,364.3660583 363.0886841,365.0056763 362.597168,365.4711914 C362.1056519,365.9367065 361.4301758,366.1694336 360.5708008,366.1694336 C359.7114258,366.1694336 359.0465698,365.9350586 358.5761719,365.4663086 C358.1057739,364.9975586 357.8706055,364.3530273 357.8706055,363.5327148 L357.8706055,358.9331055 L358.7006836,358.9331055 L358.7006836,363.5913086 C358.7006836,364.1870117 358.8634644,364.6443481 359.1889648,364.9633789 C359.5144653,365.2824097 359.992981,365.4418945 360.6245117,365.4418945 C361.2267456,365.4418945 361.6906128,365.2815552 362.0161133,364.9609375 C362.3416138,364.6403198 362.5043945,364.1805115 362.5043945,363.581543 L362.5043945,358.9331055 Z M370.5200195,366.0717773 L369.5727539,366.0717773 L365.6713867,360.0805664 L365.6323242,360.0805664 C365.6843872,360.7836914 365.7104492,361.4282227 365.7104492,362.0141602 L365.7104492,366.0717773 L364.9438477,366.0717773 L364.9438477,358.9331055 L365.8813477,358.9331055 L369.7729492,364.8999023 L369.8120117,364.8999023 C369.805481,364.8120117 369.7908325,364.5296021 369.7680664,364.0527344 C369.7453003,363.5758667 369.7371216,363.2348633 369.7436523,363.0297852 L369.7436523,358.9331055 L370.5200195,358.9331055 Z M371.5014648,366.0717773" style="fill:rgb(0,0,0);stroke:none" clip-path="url(#clip44)" />
<clipPath id="clip45"><path d="M337,376 L387,376 L387,405 L337,405 L337,376 Z" /></clipPath>
<path d="M340,402 L383,402 Z M340,402" style="fill:none;stroke:rgb(85,142,213);stroke-width:3" clip-path="url(#clip45)" />
<clipPath id="clip46"><path d="M349,381 L375,381 L375,400 L349,400 L349,381 Z" /></clipPath>
<path d="M359.3671875,394.0693359 L358.546875,394.0693359 L357.1064453,389.2890625 C357.0380859,389.0774536 356.9616089,388.8105469 356.8769531,388.4882813 C356.7922974,388.1660156 356.7483521,387.9723511 356.7451172,387.9072266 C356.6735229,388.3369141 356.5595703,388.8072815 356.4033203,389.3183594 L355.0068359,394.0693359 L354.1865234,394.0693359 L352.2871094,386.9306641 L353.1660156,386.9306641 L354.2939453,391.3398438 C354.4501953,391.9583435 354.5641479,392.5182495 354.6357422,393.0195313 C354.7236328,392.4238281 354.8538208,391.841156 355.0263672,391.2714844 L356.3056641,386.9306641 L357.1845703,386.9306641 L358.5273438,391.3105469 C358.6835938,391.8151245 358.8154297,392.3847656 358.9228516,393.0195313 C358.9846802,392.557312 359.1018677,391.9941406 359.2744141,391.3300781 L360.3974609,386.9306641 L361.2763672,386.9306641 Z M362.1367188,394.0693359 L362.1367188,386.9306641 L362.9667969,386.9306641 L362.9667969,394.0693359 Z M370.7128906,394.0693359 L369.765625,394.0693359 L365.8642578,388.078125 L365.8251953,388.078125 C365.8772583,388.78125 365.9033203,389.4257813 365.9033203,390.0117188 L365.9033203,394.0693359 L365.1367188,394.0693359 L365.1367188,386.9306641 L366.0742188,386.9306641 L369.9658203,392.8974609 L370.0048828,392.8974609 C369.9983521,392.8095703 369.9837036,392.5271606 369.9609375,392.050293 C369.9381714,391.5734253 369.9299927,391.2324219 369.9365234,391.0273438 L369.9365234,386.9306641 L370.7128906,386.9306641 Z M371.6943359,394.0693359" style="fill:rgb(0,0,0);stroke:none" clip-path="url(#clip46)" />
</svg>
